<svg width="98" height="20" viewBox="0 0 98 20" fill="none" xmlns="http://www.w3.org/2000/svg">
<g clip-path="url(#clip0_4108_737)">
<path d="M7.95209 6.87364C7.95209 6.82284 7.95209 6.08374 7.95209 6.08374H7.52523C7.52523 6.08374 7.52523 6.81137 7.52523 6.83434C7.52523 6.96871 7.40419 7.05884 7.20032 7.05884C6.98689 7.05884 6.87062 6.97197 6.87062 6.83267C6.87062 6.80974 6.87062 6.08374 6.87062 6.08374H6.43896C6.43896 6.08374 6.43896 6.77367 6.43896 6.83267C6.43896 7.22271 6.74955 7.38824 7.18279 7.38824C7.64629 7.38824 7.95209 7.22107 7.95209 6.87364Z" fill="#222222"/>
<path d="M9.38963 7.37021V7.02771H8.62831V6.08374H8.19666V7.37021H9.38963Z" fill="#222222"/>
<path d="M10.6725 6.40661V6.08374H9.18005V6.40661H9.70725V7.37021H10.1437V6.40661H10.6725Z" fill="#222222"/>
<path d="M11.2468 7.37021V6.08374H10.8083V7.37021H11.2468Z" fill="#222222"/>
<path d="M13.2559 7.37021V6.08374H12.7159L12.3751 6.85564L12.0502 6.08374H11.4927V7.37021H11.8988V6.67537L12.1919 7.37021H12.5551L12.8513 6.67537V7.37021H13.2559Z" fill="#222222"/>
<path d="M13.9324 7.13257H14.6077L14.7176 7.37021H15.1779L14.5472 6.08374H14.0327L13.3654 7.37021H13.8161L13.9324 7.13257ZM14.4723 6.84414H14.0725L14.2302 6.53441L14.278 6.41644L14.3226 6.53277L14.4723 6.84414Z" fill="#222222"/>
<path d="M16.5317 6.40661V6.08374H15.0394V6.40661H15.5666V7.37021H16.003V6.40661H16.5317Z" fill="#222222"/>
<path d="M17.9831 7.37021V7.05064H17.0867V6.88347H17.9465V6.57047H17.0867V6.40494H17.9721V6.08374H16.6662V7.37021H17.9831Z" fill="#222222"/>
<path d="M9.69414 8.0542H9.2816C9.2816 8.0542 9.01242 8.86377 9.01242 8.88343C9.01242 8.86377 8.76076 8.0542 8.76076 8.0542H8.3132C8.3132 8.0542 8.06313 8.86377 8.06313 8.88343C8.06313 8.86377 7.79236 8.0542 7.79236 8.0542H7.32886L7.79715 9.34067H8.26383C8.26383 9.34067 8.51549 8.57207 8.51707 8.55077C8.51866 8.57207 8.76873 9.34067 8.76873 9.34067H9.23699L9.69414 8.0542Z" fill="#222222"/>
<path d="M10.259 9.34067V8.0542H9.82056V9.34067H10.259Z" fill="#222222"/>
<path d="M11.9623 9.34067V8.0542H11.5546V8.75397L10.9541 8.0542H10.5049V9.34067H10.9159V8.6245L11.5355 9.34067H11.9623Z" fill="#222222"/>
<path d="M13.6687 9.34067V8.0542H13.2609V8.75397L12.6605 8.0542H12.2113V9.34067H12.6222V8.6245L13.2418 9.34067H13.6687Z" fill="#222222"/>
<path d="M15.2348 9.34067V9.0211H14.3381V8.85393H15.1982V8.54093H14.3381V8.3754H15.2237V8.0542H13.9176V9.34067H15.2348Z" fill="#222222"/>
<path d="M16.9186 8.44587C16.9186 8.32953 16.8914 8.24593 16.834 8.1853C16.7592 8.10337 16.6302 8.0542 16.4326 8.0542H15.4373V9.34067H15.8625V8.88673H16.2496L16.5603 9.34067H17.0349L16.6574 8.81623C16.7417 8.80313 16.8104 8.7507 16.8547 8.68843C16.8946 8.63107 16.9186 8.54583 16.9186 8.44587ZM16.5045 8.48683C16.5045 8.50817 16.5013 8.53437 16.49 8.55403C16.4741 8.5868 16.4326 8.59993 16.3643 8.59993H15.8641V8.36557H16.3562C16.4232 8.36557 16.4679 8.37703 16.49 8.41967C16.5013 8.43603 16.5045 8.46227 16.5045 8.48683Z" fill="#222222"/>
<path d="M8.13166 10.6062C8.13166 10.5851 8.13166 9.97754 8.13166 9.97754H7.98254C7.98254 9.97754 7.98254 10.5826 7.98254 10.5963C7.98254 10.7423 7.84903 10.8252 7.6566 10.8252C7.4293 10.8252 7.31744 10.7361 7.31744 10.595C7.31744 10.5814 7.31744 9.97754 7.31744 9.97754H7.16711C7.16711 9.97754 7.16711 10.5666 7.16711 10.5901C7.16711 10.8475 7.36195 10.9613 7.6506 10.9613C7.94885 10.9613 8.13166 10.84 8.13166 10.6062Z" fill="#222222"/>
<path d="M9.20255 10.9489V10.8066H8.55118V9.97754H8.4007V10.9489H9.20255Z" fill="#222222"/>
<path d="M10.0559 10.1186V9.97754H9.05286V10.1186H9.47861V10.9489H9.63017V10.1186H10.0559Z" fill="#222222"/>
<path d="M11.1249 10.2522C11.1249 10.1829 11.1104 10.1322 11.0852 10.0914C11.0407 10.0233 10.9553 9.97754 10.8134 9.97754H10.2024V10.9489H10.3503V10.5393H10.7809L11.0443 10.9489H11.2174L10.9324 10.5133C11.0046 10.5047 11.0611 10.4626 11.0912 10.4082C11.1128 10.371 11.1249 10.3166 11.1249 10.2522ZM10.9757 10.2646C10.9757 10.2918 10.9697 10.3253 10.9589 10.3475C10.9396 10.3834 10.8951 10.402 10.823 10.4032H10.3515C10.3515 10.4007 10.3515 10.1161 10.3515 10.1161H10.7953C10.8855 10.1161 10.9336 10.1384 10.9589 10.1805C10.9697 10.2003 10.9757 10.2337 10.9757 10.2646Z" fill="#222222"/>
<path d="M11.5529 10.7089H12.141L12.2613 10.9489H12.4224L11.9437 9.97754H11.767L11.2726 10.9489H11.4302L11.5529 10.7089ZM12.0784 10.5715H11.6178L11.809 10.199L11.8512 10.1087L11.8932 10.199L12.0784 10.5715Z" fill="#222222"/>
<path d="M13.9478 10.8561C13.9851 10.8116 14.0019 10.7485 14.0019 10.6804C14.0019 10.6161 13.9839 10.5517 13.9466 10.5121C13.9093 10.475 13.8492 10.4441 13.783 10.4379C13.8215 10.4317 13.8516 10.4069 13.872 10.3809C13.9045 10.3426 13.9237 10.2807 13.9237 10.2188C13.9237 10.1532 13.9045 10.0938 13.8636 10.053C13.8191 10.0072 13.7433 9.97754 13.6375 9.97754H13.0024V10.9489H13.6844C13.8119 10.9489 13.9009 10.9155 13.9478 10.8561ZM13.7686 10.2498C13.7686 10.2931 13.7553 10.3314 13.7325 10.3537C13.7096 10.3797 13.6711 10.3908 13.6303 10.3908H13.1492V10.1112H13.6026C13.6579 10.1112 13.7 10.1223 13.7289 10.1495C13.7541 10.1743 13.7686 10.2102 13.7686 10.2498ZM13.8167 10.7621C13.7866 10.7967 13.7349 10.8141 13.6591 10.8141H13.1492V10.5257H13.6628C13.7325 10.5257 13.7806 10.5406 13.8095 10.569C13.8359 10.595 13.8468 10.6284 13.8468 10.6668C13.8468 10.7064 13.8383 10.7398 13.8167 10.7621Z" fill="#222222"/>
<path d="M15.0947 10.9489V10.8066H14.3603V10.5294H15.0658V10.3884H14.3603V10.1186H15.0863V9.97754H14.2134V10.9489H15.0947Z" fill="#222222"/>
<path d="M16.2687 10.6618C16.2687 10.5034 16.1666 10.4217 15.9152 10.392C15.873 10.3859 15.7816 10.376 15.7323 10.3698C15.4989 10.3413 15.428 10.3091 15.428 10.2262C15.428 10.1458 15.5062 10.1 15.7419 10.1C15.9246 10.1 16.0186 10.1371 16.0655 10.2039C16.0788 10.2225 16.0859 10.2448 16.0895 10.2621H16.2505C16.246 10.2336 16.235 10.194 16.2181 10.1619C16.1533 10.0468 16.0199 9.96388 15.7419 9.96388C15.41 9.96264 15.2729 10.0864 15.2729 10.2398C15.2729 10.3933 15.3799 10.4712 15.6577 10.5047C15.7058 10.5108 15.7912 10.5207 15.8333 10.5257C16.0487 10.5529 16.1161 10.5863 16.1161 10.6791C16.1161 10.7645 16.039 10.8264 15.7924 10.8264C15.5904 10.8264 15.4821 10.7893 15.4388 10.7175C15.4256 10.6977 15.4172 10.6668 15.416 10.6457H15.2572C15.2608 10.6903 15.2729 10.7385 15.2945 10.7769C15.357 10.8945 15.5038 10.9625 15.7876 10.9625C16.1268 10.9625 16.2687 10.8499 16.2687 10.6618Z" fill="#222222"/>
<path d="M17.3472 10.1186V9.97754H16.3442V10.1186H16.7699V10.9489H16.9215V10.1186H17.3472Z" fill="#222222"/>
<path d="M6.7414 11.7933C6.7414 11.6943 6.72215 11.6274 6.68966 11.5767C6.64398 11.5037 6.55495 11.4653 6.39981 11.4653H5.80328V12.4367H5.95241V12.1199C5.95241 12.1199 6.37337 12.1199 6.39381 12.1199C6.53934 12.1187 6.63915 12.0841 6.69209 12.0049C6.72575 11.9566 6.7414 11.8873 6.7414 11.7933ZM6.58984 11.7933C6.58984 11.8427 6.58502 11.8799 6.5694 11.9046C6.54174 11.9504 6.4852 11.9789 6.36854 11.9789C6.35772 11.9789 5.95241 11.9789 5.95241 11.9789V11.6039H6.37337C6.48281 11.6039 6.53934 11.6299 6.5694 11.6806C6.58382 11.7029 6.58984 11.7438 6.58984 11.7933Z" fill="#222222"/>
<path d="M7.83094 12.4367V12.2944H7.09647V12.0172H7.80204V11.8762H7.09647V11.6064H7.8225V11.4653H6.94958V12.4367H7.83094Z" fill="#222222"/>
<path d="M8.97727 11.74C8.97727 11.6707 8.96286 11.62 8.93759 11.5792C8.89308 11.5111 8.80771 11.4653 8.66578 11.4653H8.05481V12.4367H8.20273V12.0271H8.63332L8.8967 12.4367H9.0699L8.78484 12.0011C8.85702 11.9925 8.91355 11.9504 8.94361 11.896C8.96526 11.8588 8.97727 11.8044 8.97727 11.74ZM8.82815 11.7524C8.82815 11.7796 8.82213 11.8131 8.81131 11.8353C8.79206 11.8712 8.74755 11.8898 8.6754 11.891H8.20393C8.20393 11.8885 8.20393 11.6039 8.20393 11.6039H8.64773C8.73793 11.6039 8.78604 11.6262 8.81131 11.6683C8.82213 11.6881 8.82815 11.7215 8.82815 11.7524Z" fill="#222222"/>
<path d="M10.0932 11.6064V11.4653H9.25281V12.4367H9.40209V12.0234H10.0619V11.8786H9.40209V11.6064H10.0932Z" fill="#222222"/>
<path d="M10.7768 11.448C10.576 11.448 10.4377 11.4987 10.339 11.6052C10.2561 11.6881 10.22 11.8032 10.22 11.9479C10.22 12.1063 10.2669 12.2251 10.3535 12.3056C10.4461 12.4009 10.588 12.4503 10.7768 12.4503C10.9717 12.4503 11.1232 12.4009 11.2134 12.3006C11.2916 12.2189 11.3325 12.1026 11.3325 11.9467C11.3325 11.7957 11.2976 11.6806 11.2146 11.599C11.1196 11.4975 10.9777 11.448 10.7768 11.448ZM10.7768 12.3118C10.6445 12.3118 10.5507 12.2821 10.4798 12.2227C10.4076 12.162 10.3727 12.0692 10.3727 11.9504C10.3727 11.839 10.4028 11.7462 10.4605 11.6905C10.5267 11.6262 10.6277 11.5878 10.7756 11.5878C10.9284 11.5878 11.0234 11.625 11.0943 11.6893C11.1545 11.7438 11.1809 11.8403 11.1809 11.9492C11.1809 12.0593 11.1533 12.1534 11.0919 12.2103C11.021 12.2783 10.9212 12.3118 10.7768 12.3118Z" fill="#222222"/>
<path d="M12.4609 11.74C12.4609 11.6707 12.4465 11.62 12.4212 11.5792C12.3767 11.5111 12.2913 11.4653 12.1494 11.4653H11.5385V12.4367H11.6864V12.0271H12.1169L12.3803 12.4367H12.5535L12.2685 12.0011C12.3406 11.9925 12.3972 11.9504 12.4272 11.896C12.4489 11.8588 12.4609 11.8044 12.4609 11.74ZM12.3118 11.7524C12.3118 11.7796 12.3058 11.8131 12.2949 11.8353C12.2757 11.8712 12.2312 11.8898 12.159 11.891H11.6876C11.6876 11.8885 11.6876 11.6039 11.6876 11.6039H12.1314C12.2216 11.6039 12.2697 11.6262 12.2949 11.6683C12.3058 11.6881 12.3118 11.7215 12.3118 11.7524Z" fill="#222222"/>
<path d="M13.8995 12.4367V11.4653H13.7046L13.3162 12.2647L12.9349 11.4653H12.7365V12.4367H12.8796V11.6893L13.2356 12.4367H13.3919L13.7563 11.6893V12.4367H13.8995Z" fill="#222222"/>
<path d="M14.3218 12.1967H14.9099L15.0302 12.4367H15.1914L14.7127 11.4653H14.5359L14.0416 12.4367H14.1991L14.3218 12.1967ZM14.8474 12.0593H14.3868L14.578 11.6868L14.6201 11.5965L14.6622 11.6868L14.8474 12.0593Z" fill="#222222"/>
<path d="M16.2748 12.4367V11.4653H16.1316V12.2202L15.5064 11.4653H15.3368V12.4367H15.4823V11.6769L16.1125 12.4367H16.2748Z" fill="#222222"/>
<path d="M17.5723 12.0742H17.4159C17.411 12.1187 17.3942 12.1633 17.364 12.1967C17.2992 12.2746 17.1959 12.308 17.0372 12.308C16.9037 12.308 16.7605 12.2697 16.6918 12.1694C16.6558 12.1224 16.6328 12.0531 16.6328 11.9492C16.6328 11.8564 16.6487 11.7871 16.6834 11.74C16.741 11.6448 16.8625 11.5953 17.0336 11.5953C17.1995 11.5953 17.3041 11.6423 17.3595 11.7079C17.3906 11.7425 17.4087 11.7834 17.4146 11.8316H17.5711C17.5662 11.7772 17.5493 11.7128 17.5134 11.6584C17.4363 11.5408 17.2944 11.448 17.0346 11.448C16.7871 11.448 16.639 11.5297 16.557 11.6522C16.5042 11.7227 16.4777 11.8217 16.4777 11.9479C16.4777 12.089 16.5104 12.193 16.5668 12.266C16.6487 12.3811 16.8062 12.4503 17.0443 12.4503C17.2886 12.4503 17.434 12.3749 17.5063 12.2548C17.5471 12.1967 17.5675 12.1274 17.5723 12.0742Z" fill="#222222"/>
<path d="M18.6495 12.4367V12.2944H17.9149V12.0172H18.6207V11.8762H17.9149V11.6064H18.6411V11.4653H17.768V12.4367H18.6495Z" fill="#222222"/>
<path d="M7.64945 13.4019L7.82932 13.9715H8.41139L7.9405 14.3235L8.12037 14.8931L7.64945 14.5411L7.17853 14.8931L7.35843 14.3235L6.88751 13.9715H7.46958L7.64945 13.4019Z" fill="#222222"/>
<path d="M9.72598 13.4019L9.9095 13.9714H10.5035L10.023 14.3235L10.2065 14.8931L9.72598 14.541L9.24547 14.8931L9.42899 14.3235L8.94849 13.9714H9.54245L9.72598 13.4019Z" fill="#222222"/>
<path d="M11.786 13.4019L11.9696 13.9714H12.5635L12.083 14.3235L12.2666 14.8931L11.786 14.541L11.3055 14.8931L11.4891 14.3235L11.0085 13.9714H11.6025L11.786 13.4019Z" fill="#222222"/>
<path d="M13.8462 13.4019L14.0297 13.9714H14.6236L14.1431 14.3235L14.3267 14.8931L13.8462 14.541L13.3656 14.8931L13.5492 14.3235L13.0687 13.9714H13.6626L13.8462 13.4019Z" fill="#222222"/>
<path d="M15.9227 13.4019L16.1025 13.9714H16.6846L16.2136 14.3235L16.3934 14.8931L15.9227 14.541L15.4517 14.8931L15.6316 14.3235L15.1607 13.9714H15.7428L15.9227 13.4019Z" fill="#222222"/>
<path d="M8.65835 3.79199L8.79436 4.22266H9.23447L8.87843 4.48883L9.01443 4.91946L8.65835 4.65333L8.30231 4.91946L8.43832 4.48883L8.08228 4.22266H8.52239L8.65835 3.79199Z" fill="#222222"/>
<path d="M10.2284 3.7915L10.3672 4.22217H10.8162L10.4529 4.48834L10.5917 4.91897L10.2284 4.6528L9.86504 4.91897L10.0038 4.48834L9.6405 4.22217H10.0896L10.2284 3.7915Z" fill="#222222"/>
<path d="M11.786 3.7915L11.9247 4.22217H12.3738L12.0105 4.48834L12.1493 4.91897L11.786 4.6528L11.4227 4.91897L11.5615 4.48834L11.1981 4.22217H11.6472L11.786 3.7915Z" fill="#222222"/>
<path d="M13.3438 3.7915L13.4825 4.22217H13.9316L13.5683 4.48834L13.7071 4.91897L13.3438 4.6528L12.9805 4.91897L13.1192 4.48834L12.7559 4.22217H13.205L13.3438 3.7915Z" fill="#222222"/>
<path d="M14.9135 3.7915L15.0495 4.22217H15.4897L15.1336 4.48834L15.2696 4.91897L14.9135 4.6528L14.5575 4.91897L14.6935 4.48834L14.3375 4.22217H14.7775L14.9135 3.7915Z" fill="#222222"/>
<path fill-rule="evenodd" clip-rule="evenodd" d="M2.38971 11.5436C1.78952 7.67995 3.54115 3.85735 7.04781 2.21582L7.08017 2.28902C3.6088 3.91402 1.87165 7.69922 2.46687 11.5309C3.1254 15.77 6.44911 18.3123 10.5193 18.4349L10.517 18.5153C6.4151 18.3918 3.055 15.8264 2.38971 11.5436Z" fill="#222222"/>
<path d="M6.28747 3.20184C5.63944 3.21704 4.881 3.59304 4.43347 4.13918C4.79236 4.48208 5.3698 4.35531 5.78536 4.28518C6.37844 4.18511 7.00914 3.99124 7.5688 3.71681C7.33868 3.21281 6.7188 3.19174 6.28747 3.20184Z" fill="#222222"/>
<path d="M5.77786 2.3793C5.39403 2.9945 4.93658 3.60593 4.43878 4.14437C4.02228 3.7421 4.27368 3.07267 4.44367 2.65637C4.7516 1.90203 5.48989 1.25153 6.26174 0.918701C6.47358 1.4146 6.01345 2.0017 5.77786 2.3793Z" fill="#222222"/>
<path d="M4.41223 4.92679C3.80544 5.14873 3.28401 5.77346 3.02222 6.40066C3.45854 6.60939 3.95456 6.30796 4.31744 6.10726C4.8157 5.83166 5.32404 5.45139 5.72401 5.01133C5.36262 4.61899 4.81389 4.77993 4.41223 4.92679Z" fill="#222222"/>
<path d="M3.67671 4.31221C3.54389 5.01388 3.32119 5.74114 3.02871 6.40401C2.51821 6.15628 2.53764 5.44674 2.55951 4.99521C2.59683 4.22451 3.01589 3.34564 3.59932 2.78711C3.95649 3.18111 3.76133 3.86524 3.67671 4.31221Z" fill="#222222"/>
<path d="M3.2447 7.15414C2.73909 7.56454 2.43261 8.3251 2.36163 9.00427C2.83994 9.06077 3.22225 8.6129 3.50673 8.30564C3.89403 7.88727 4.26067 7.36254 4.4935 6.81357C4.03755 6.55764 3.57405 6.8868 3.2447 7.15414Z" fill="#222222"/>
<path d="M2.3687 6.80774C2.45886 7.51631 2.45906 8.28287 2.36887 9.00527C1.81261 8.93497 1.62811 8.24777 1.51913 7.81667C1.33097 7.07254 1.45712 6.11134 1.82366 5.38794C2.28172 5.64884 2.3111 6.35484 2.3687 6.80774Z" fill="#222222"/>
<path d="M2.84792 9.58532C2.44782 10.1884 2.30712 11.1334 2.48705 11.893C3.01577 11.7642 3.27786 11.1483 3.48831 10.7133C3.76799 10.1352 4.00439 9.46078 4.08901 8.79908C3.51555 8.67628 3.11147 9.18805 2.84792 9.58532Z" fill="#222222"/>
<path d="M1.79763 9.52428C2.10935 10.2668 2.35262 11.0842 2.49497 11.8911C1.8886 12.0251 1.45218 11.37 1.19864 10.9356C0.747259 10.1623 0.615761 9.09035 0.781114 8.16528C1.3361 8.27978 1.60768 9.07195 1.79763 9.52428Z" fill="#222222"/>
<path d="M3.12775 12.209C2.91292 12.9405 3.06224 13.935 3.4972 14.6227C3.97518 14.3025 4.04133 13.5978 4.10908 13.0925C4.19839 12.4257 4.24045 11.687 4.12949 10.9956C3.51813 11.0759 3.27123 11.7203 3.12775 12.209Z" fill="#222222"/>
<path d="M2.06537 12.5221C2.60173 13.1554 3.0965 13.8774 3.50453 14.618C2.95113 14.9735 2.30174 14.4878 1.90789 14.1442C1.20919 13.5345 0.755506 12.4984 0.647949 11.5215C1.22941 11.4411 1.74183 12.1401 2.06537 12.5221Z" fill="#222222"/>
<path d="M4.25501 14.6989C4.30111 15.5504 4.8399 16.4439 5.55729 16.9525C5.90374 16.4645 5.68659 15.7167 5.5684 15.1947C5.4093 14.492 5.1891 13.7602 4.86186 13.1108C4.29123 13.4211 4.22465 14.1382 4.25501 14.6989Z" fill="#222222"/>
<path d="M3.29017 15.4183C4.0674 15.8626 4.8424 16.387 5.56297 16.945C5.13144 17.5296 4.26891 17.2965 3.73424 17.1086C2.79201 16.7774 1.95199 15.9044 1.51324 14.9345C2.06953 14.6397 2.83105 15.1558 3.29017 15.4183Z" fill="#222222"/>
<path d="M6.46861 16.7792C6.93509 17.6551 7.99812 18.2265 8.99918 18.3641C9.10693 17.7273 8.43726 17.0968 8.07234 16.6843C7.5528 16.0971 7.01141 15.4877 6.40443 14.98C5.94968 15.5232 6.19009 16.2562 6.46861 16.7792Z" fill="#222222"/>
<path d="M5.8024 17.8893C6.86278 18.0027 7.94114 18.166 9.0009 18.3543C8.89972 19.1578 7.66052 19.2875 7.09795 19.3349C5.94446 19.4322 4.66129 18.9551 3.76782 18.152C4.21159 17.6147 5.23757 17.8289 5.8024 17.8893Z" fill="#222222"/>
<path d="M7.84483 1.54137C7.13291 1.75033 6.2996 2.14677 5.88794 2.87857C6.63517 2.79477 7.36957 2.5212 8.08778 2.31277C8.89225 2.07927 9.73933 1.90463 10.5182 1.58233C9.66521 1.2312 8.65968 1.30217 7.84483 1.54137Z" fill="#222222"/>
<path fill-rule="evenodd" clip-rule="evenodd" d="M21.6177 11.5309C22.2128 7.69922 20.4757 3.91409 17.0044 2.28902L17.0368 2.21582C20.5434 3.85739 22.2951 7.67995 21.6948 11.5436C21.0297 15.8264 17.6695 18.3918 13.5676 18.5153L13.5654 18.4349C17.6355 18.3123 20.9591 15.77 21.6177 11.5309Z" fill="#222222"/>
<path d="M17.7972 3.20184C18.4451 3.21704 19.2035 3.59304 19.6512 4.13918C19.2923 4.48208 18.7146 4.35531 18.2993 4.28518C17.7061 4.18511 17.0754 3.99124 16.5159 3.71681C16.7459 3.21281 17.3656 3.19174 17.7972 3.20184Z" fill="#222222"/>
<path d="M18.3067 2.3793C18.6906 2.9945 19.1481 3.60593 19.6457 4.14437C20.0623 3.7421 19.8109 3.07267 19.6408 2.65637C19.3331 1.90203 18.5948 1.25153 17.8227 0.918701C17.6109 1.4146 18.0712 2.0017 18.3067 2.3793Z" fill="#222222"/>
<path d="M19.6726 4.92679C20.2794 5.14873 20.8006 5.77346 21.0624 6.40066C20.626 6.60939 20.13 6.30796 19.7672 6.10726C19.2689 5.83166 18.7606 5.45139 18.3608 5.01133C18.7221 4.61899 19.2709 4.77993 19.6726 4.92679Z" fill="#222222"/>
<path d="M20.408 4.31221C20.5409 5.01388 20.7634 5.74114 21.056 6.40401C21.5665 6.15628 21.5471 5.44674 21.5251 4.99521C21.4878 4.22451 21.0689 3.34564 20.4855 2.78711C20.1281 3.18111 20.3235 3.86524 20.408 4.31221Z" fill="#222222"/>
<path d="M20.8399 7.15414C21.3456 7.56454 21.6521 8.3251 21.723 9.00427C21.2448 9.06077 20.8626 8.6129 20.5781 8.30564C20.1906 7.88727 19.8239 7.36254 19.5913 6.81357C20.0471 6.55764 20.5107 6.8868 20.8399 7.15414Z" fill="#222222"/>
<path d="M21.7162 6.80774C21.6258 7.51624 21.6258 8.28287 21.7159 9.00527C22.2721 8.93497 22.4568 8.24777 22.5657 7.81667C22.7539 7.07254 22.6275 6.11134 22.2611 5.38794C21.803 5.64884 21.7735 6.35484 21.7162 6.80774Z" fill="#222222"/>
<path d="M21.2367 9.58532C21.6368 10.1884 21.7774 11.1334 21.5976 11.893C21.0689 11.7642 20.8068 11.1483 20.5962 10.7133C20.3167 10.1352 20.0802 9.46078 19.9956 8.79908C20.569 8.67628 20.9733 9.18805 21.2367 9.58532Z" fill="#222222"/>
<path d="M22.287 9.52428C21.9754 10.2668 21.7321 11.0842 21.5898 11.8911C22.196 12.0251 22.6324 11.37 22.886 10.9356C23.3373 10.1623 23.4689 9.09035 23.3036 8.16528C22.7487 8.27978 22.4769 9.07195 22.287 9.52428Z" fill="#222222"/>
<path d="M20.9568 12.209C21.1716 12.9405 21.0226 13.935 20.5875 14.6227C20.1096 14.3025 20.0432 13.5978 19.9755 13.0925C19.8864 12.4257 19.8443 11.687 19.9551 10.9956C20.5664 11.0759 20.8133 11.7203 20.9568 12.209Z" fill="#222222"/>
<path d="M22.0191 12.5221C21.4829 13.1554 20.9882 13.8774 20.58 14.618C21.1334 14.9735 21.7829 14.4878 22.1769 14.1442C22.8753 13.5345 23.3292 12.4984 23.4368 11.5215C22.8552 11.4411 22.3427 12.1401 22.0191 12.5221Z" fill="#222222"/>
<path d="M19.8294 14.6989C19.7834 15.5504 19.2446 16.4439 18.5274 16.9525C18.1807 16.4645 18.3981 15.7167 18.516 15.1947C18.6751 14.492 18.8954 13.7602 19.2226 13.1108C19.7934 13.4211 19.8598 14.1382 19.8294 14.6989Z" fill="#222222"/>
<path d="M20.7945 15.4183C20.0173 15.8626 19.2424 16.387 18.5219 16.945C18.9534 17.5296 19.8158 17.2965 20.3503 17.1086C21.2927 16.7774 22.1328 15.9044 22.5714 14.9345C22.0152 14.6397 21.2535 15.1558 20.7945 15.4183Z" fill="#222222"/>
<path d="M17.6161 16.7792C17.1496 17.6551 16.0866 18.2265 15.0854 18.3641C14.9777 17.7273 15.6473 17.0968 16.0124 16.6843C16.5318 16.0971 17.0731 15.4877 17.6802 14.98C18.1351 15.5232 17.8944 16.2562 17.6161 16.7792Z" fill="#222222"/>
<path d="M18.2821 17.8893C17.2218 18.0027 16.1436 18.166 15.0837 18.3543C15.1849 19.1578 16.4242 19.2875 16.9866 19.3349C18.1402 19.4322 19.4235 18.9551 20.3167 18.152C19.8731 17.6147 18.8471 17.8289 18.2821 17.8893Z" fill="#222222"/>
<path d="M16.2398 1.54137C16.9516 1.75033 17.7851 2.14677 18.1966 2.87857C17.4495 2.79477 16.7151 2.5212 15.9968 2.31277C15.1924 2.07927 14.3453 1.90463 13.5664 1.58233C14.4194 1.2312 15.4249 1.30217 16.2398 1.54137Z" fill="#222222"/>
<path d="M12.5053 1.16255L12.14 0.333252L11.7816 1.14712L10.9481 0.615385L11.4837 1.77349H12.8157L13.332 0.615385L12.5053 1.16255Z" fill="#222222"/>
<path d="M12.8072 1.95361H11.473V2.15618H12.8072V1.95361Z" fill="#222222"/>
<path d="M12.2354 17.624L12.4504 18.3048H13.1461L12.5833 18.7255L12.7982 19.4062L12.2354 18.9855L11.6726 19.4062L11.8876 18.7255L11.3248 18.3048H12.0205L12.2354 17.624Z" fill="#222222"/>
</g>
<path d="M32.1609 8.3637V2.54552H34.4879C34.9154 2.54552 35.2721 2.60897 35.5577 2.73586C35.8434 2.86276 36.0581 3.03889 36.2019 3.26427C36.3457 3.48776 36.4176 3.74533 36.4176 4.037C36.4176 4.26427 36.3722 4.46408 36.2814 4.63643C36.1905 4.80689 36.0657 4.94704 35.9068 5.05689C35.7497 5.16484 35.57 5.24154 35.3676 5.287V5.34382C35.5889 5.35329 35.7961 5.41579 35.9891 5.53132C36.1839 5.64685 36.3419 5.80878 36.463 6.01711C36.5841 6.22355 36.6446 6.46976 36.6446 6.75575C36.6446 7.06446 36.568 7.34003 36.4147 7.58245C36.2634 7.82298 36.0392 8.01332 35.7422 8.15348C35.4452 8.29363 35.0791 8.3637 34.644 8.3637H32.1609ZM33.3897 7.35802H34.3914C34.7338 7.35802 34.9835 7.29268 35.1406 7.162C35.2976 7.02942 35.3761 6.85329 35.3761 6.63359C35.3761 6.4726 35.3373 6.33056 35.2598 6.20745C35.1822 6.08435 35.0715 5.98776 34.9277 5.91768C34.7858 5.8476 34.6165 5.81257 34.4198 5.81257H33.3897V7.35802ZM33.3897 4.98018H34.3006C34.469 4.98018 34.6184 4.95082 34.749 4.89211C34.8814 4.83151 34.9854 4.74628 35.0611 4.63643C35.1387 4.52658 35.1775 4.39495 35.1775 4.24154C35.1775 4.03132 35.1027 3.86181 34.9533 3.73302C34.8057 3.60423 34.5957 3.53984 34.3233 3.53984H33.3897V4.98018Z" fill="#222222"/>
<path d="M39.4079 8.44893C38.9595 8.44893 38.5736 8.35802 38.2501 8.1762C37.9285 7.99249 37.6806 7.73302 37.5066 7.39779C37.3325 7.06067 37.2455 6.662 37.2455 6.20177C37.2455 5.75291 37.3325 5.35897 37.5066 5.01995C37.6806 4.68094 37.9256 4.41673 38.2416 4.22734C38.5594 4.03795 38.9321 3.94325 39.3596 3.94325C39.6472 3.94325 39.9149 3.98965 40.1627 4.08245C40.4125 4.17336 40.63 4.31067 40.8154 4.49439C41.0027 4.6781 41.1484 4.90916 41.2524 5.18757C41.3565 5.46408 41.4085 5.78795 41.4085 6.15916V6.49154H37.7279V5.74154H40.2706C40.2706 5.5673 40.2327 5.41295 40.1571 5.27848C40.0814 5.14401 39.9764 5.03889 39.8421 4.96314C39.7096 4.88548 39.5554 4.84666 39.3795 4.84666C39.196 4.84666 39.0333 4.88927 38.8914 4.9745C38.7514 5.05783 38.6417 5.17052 38.5622 5.31257C38.4828 5.45272 38.4421 5.60897 38.4402 5.78132V6.49438C38.4402 6.71029 38.4799 6.89685 38.5594 7.05404C38.6407 7.21124 38.7552 7.33245 38.9028 7.41768C39.0503 7.50291 39.2253 7.54552 39.4277 7.54552C39.5621 7.54552 39.685 7.52658 39.7967 7.4887C39.9083 7.45082 40.0038 7.39401 40.0833 7.31825C40.1627 7.24249 40.2233 7.14969 40.2649 7.03984L41.383 7.1137C41.3262 7.38264 41.2099 7.61749 41.0339 7.81825C40.8599 8.01711 40.6348 8.17242 40.3585 8.28416C40.0842 8.39401 39.7673 8.44893 39.4079 8.44893Z" fill="#222222"/>
<path d="M45.8241 5.24439L44.7174 5.31257C44.6985 5.21787 44.6578 5.13264 44.5954 5.05689C44.5329 4.97923 44.4506 4.91768 44.3485 4.87223C44.2482 4.82488 44.1281 4.8012 43.9881 4.8012C43.8008 4.8012 43.6428 4.84098 43.5142 4.92052C43.3855 4.99817 43.3212 5.10234 43.3212 5.23302C43.3212 5.33719 43.3628 5.42526 43.446 5.49723C43.5293 5.5692 43.6721 5.62696 43.8746 5.67052L44.6635 5.82961C45.0872 5.91673 45.4032 6.05689 45.6113 6.25007C45.8194 6.44325 45.9234 6.69704 45.9234 7.01143C45.9234 7.29742 45.8392 7.54836 45.6709 7.76427C45.5044 7.98018 45.2755 8.14874 44.9841 8.26995C44.6947 8.38927 44.3608 8.44893 43.9824 8.44893C43.4054 8.44893 42.9457 8.32867 42.6032 8.08814C42.2627 7.84571 42.0631 7.51617 42.0045 7.0995L43.1935 7.037C43.2294 7.21314 43.3165 7.3476 43.4546 7.44041C43.5927 7.53132 43.7696 7.57677 43.9852 7.57677C44.1971 7.57677 44.3674 7.53605 44.496 7.45461C44.6266 7.37128 44.6928 7.26427 44.6947 7.13359C44.6928 7.02374 44.6464 6.93378 44.5556 6.8637C44.4648 6.79173 44.3248 6.73681 44.1356 6.69893L43.3808 6.54836C42.9551 6.46313 42.6382 6.31541 42.4301 6.10518C42.2239 5.89495 42.1208 5.62696 42.1208 5.3012C42.1208 5.0209 42.1965 4.77942 42.3478 4.57677C42.5011 4.37412 42.7158 4.21787 42.992 4.10802C43.2701 3.99817 43.5955 3.94325 43.9682 3.94325C44.5187 3.94325 44.952 4.05973 45.2679 4.29268C45.5857 4.52564 45.7711 4.84287 45.8241 5.24439Z" fill="#222222"/>
<path d="M49.0031 4.00007V4.90916H46.3782V4.00007H49.0031ZM46.9741 2.95461H48.183V7.02279C48.183 7.13454 48.2 7.22166 48.2341 7.28416C48.2682 7.34476 48.3154 7.38738 48.376 7.412C48.4384 7.43662 48.5103 7.44893 48.5917 7.44893C48.6484 7.44893 48.7052 7.4442 48.7619 7.43473C48.8187 7.42336 48.8622 7.41484 48.8925 7.40916L49.0826 8.30973C49.0221 8.32867 48.9369 8.35045 48.8272 8.37507C48.7175 8.40158 48.5841 8.41768 48.4271 8.42336C48.1357 8.43473 47.8803 8.3959 47.6609 8.30689C47.4433 8.21787 47.274 8.07961 47.1529 7.89211C47.0318 7.70461 46.9722 7.46787 46.9741 7.18188V2.95461Z" fill="#222222"/>
<path d="M56.7907 4.58245H55.5478C55.5251 4.42147 55.4787 4.27848 55.4087 4.15348C55.3387 4.02658 55.2489 3.91863 55.1391 3.82961C55.0294 3.7406 54.9027 3.67242 54.7589 3.62507C54.617 3.57772 54.4628 3.55404 54.2963 3.55404C53.9955 3.55404 53.7335 3.62885 53.5102 3.77848C53.287 3.9262 53.1139 4.14211 52.9909 4.4262C52.868 4.7084 52.8065 5.0512 52.8065 5.45461C52.8065 5.86939 52.868 6.21787 52.9909 6.50007C53.1158 6.78226 53.2898 6.99533 53.5131 7.13927C53.7363 7.28321 53.9946 7.35518 54.2878 7.35518C54.4524 7.35518 54.6047 7.3334 54.7447 7.28984C54.8866 7.24628 55.0124 7.18283 55.1221 7.0995C55.2318 7.01427 55.3226 6.91105 55.3945 6.78984C55.4683 6.66863 55.5194 6.53037 55.5478 6.37507L56.7907 6.38075C56.7586 6.64779 56.6782 6.90537 56.5495 7.15348C56.4228 7.39969 56.2515 7.62033 56.0359 7.81541C55.8221 8.00859 55.5667 8.162 55.2697 8.27564C54.9745 8.38738 54.6406 8.44325 54.2679 8.44325C53.7496 8.44325 53.2861 8.32582 52.8774 8.09098C52.4707 7.85613 52.1491 7.51617 51.9126 7.07109C51.678 6.62601 51.5607 6.08719 51.5607 5.45461C51.5607 4.82014 51.6799 4.28037 51.9183 3.83529C52.1566 3.39022 52.4801 3.0512 52.8888 2.81825C53.2974 2.5834 53.7571 2.46598 54.2679 2.46598C54.6047 2.46598 54.9168 2.51332 55.2044 2.60802C55.4939 2.70272 55.7502 2.84098 55.9734 3.02279C56.1967 3.20272 56.3783 3.42336 56.5183 3.68473C56.6602 3.94609 56.751 4.24533 56.7907 4.58245Z" fill="#222222"/>
<path d="M59.6186 8.44893C59.1778 8.44893 58.7966 8.35518 58.4749 8.16768C58.1552 7.97829 57.9083 7.71503 57.7343 7.37791C57.5602 7.03889 57.4732 6.6459 57.4732 6.19893C57.4732 5.74817 57.5602 5.35423 57.7343 5.01711C57.9083 4.6781 58.1552 4.41484 58.4749 4.22734C58.7966 4.03795 59.1778 3.94325 59.6186 3.94325C60.0594 3.94325 60.4396 4.03795 60.7594 4.22734C61.081 4.41484 61.3288 4.6781 61.5029 5.01711C61.6769 5.35423 61.7639 5.74817 61.7639 6.19893C61.7639 6.6459 61.6769 7.03889 61.5029 7.37791C61.3288 7.71503 61.081 7.97829 60.7594 8.16768C60.4396 8.35518 60.0594 8.44893 59.6186 8.44893ZM59.6243 7.51143C59.8248 7.51143 59.9922 7.45461 60.1265 7.34098C60.2609 7.22545 60.3621 7.06825 60.4302 6.86938C60.5002 6.67052 60.5352 6.4442 60.5352 6.19041C60.5352 5.93662 60.5002 5.71029 60.4302 5.51143C60.3621 5.31257 60.2609 5.15537 60.1265 5.03984C59.9922 4.92431 59.8248 4.86654 59.6243 4.86654C59.4218 4.86654 59.2516 4.92431 59.1134 5.03984C58.9772 5.15537 58.8741 5.31257 58.8041 5.51143C58.736 5.71029 58.702 5.93662 58.702 6.19041C58.702 6.4442 58.736 6.67052 58.8041 6.86938C58.8741 7.06825 58.9772 7.22545 59.1134 7.34098C59.2516 7.45461 59.4218 7.51143 59.6243 7.51143Z" fill="#222222"/>
<path d="M65.2658 5.49439V6.45461H62.6153V5.49439H65.2658Z" fill="#222222"/>
<path d="M67.4629 8.3637L65.8 2.54552H67.1422L68.1043 6.58813H68.1525L69.2138 2.54552H70.3631L71.4216 6.59666H71.4727L72.4347 2.54552H73.777L72.114 8.3637H70.9165L69.8098 4.55973H69.7644L68.6605 8.3637H67.4629Z" fill="#222222"/>
<path d="M75.9131 8.44893C75.4723 8.44893 75.0911 8.35518 74.7695 8.16768C74.4498 7.97829 74.2029 7.71503 74.0288 7.37791C73.8548 7.03889 73.7678 6.6459 73.7678 6.19893C73.7678 5.74817 73.8548 5.35423 74.0288 5.01711C74.2029 4.6781 74.4498 4.41484 74.7695 4.22734C75.0911 4.03795 75.4723 3.94325 75.9131 3.94325C76.3539 3.94325 76.7342 4.03795 77.0539 4.22734C77.3755 4.41484 77.6234 4.6781 77.7974 5.01711C77.9715 5.35423 78.0585 5.74817 78.0585 6.19893C78.0585 6.6459 77.9715 7.03889 77.7974 7.37791C77.6234 7.71503 77.3755 7.97829 77.0539 8.16768C76.7342 8.35518 76.3539 8.44893 75.9131 8.44893ZM75.9188 7.51143C76.1193 7.51143 76.2868 7.45461 76.4211 7.34098C76.5554 7.22545 76.6566 7.06825 76.7247 6.86938C76.7947 6.67052 76.8297 6.4442 76.8297 6.19041C76.8297 5.93662 76.7947 5.71029 76.7247 5.51143C76.6566 5.31257 76.5554 5.15537 76.4211 5.03984C76.2868 4.92431 76.1193 4.86654 75.9188 4.86654C75.7164 4.86654 75.5461 4.92431 75.408 5.03984C75.2718 5.15537 75.1687 5.31257 75.0987 5.51143C75.0306 5.71029 74.9965 5.93662 74.9965 6.19041C74.9965 6.4442 75.0306 6.67052 75.0987 6.86938C75.1687 7.06825 75.2718 7.22545 75.408 7.34098C75.5461 7.45461 75.7164 7.51143 75.9188 7.51143Z" fill="#222222"/>
<path d="M78.8446 8.3637V4.00007H80.0166V4.76143H80.062C80.1414 4.4906 80.2748 4.28605 80.4621 4.14779C80.6494 4.00764 80.8651 3.93757 81.1091 3.93757C81.1696 3.93757 81.2349 3.94135 81.3049 3.94893C81.3749 3.95651 81.4364 3.96692 81.4894 3.98018V5.05404C81.4326 5.037 81.3541 5.02185 81.2538 5.00859C81.1536 4.99533 81.0618 4.9887 80.9786 4.9887C80.8007 4.9887 80.6418 5.02753 80.5018 5.10518C80.3637 5.18094 80.254 5.287 80.1726 5.42336C80.0932 5.55973 80.0534 5.71692 80.0534 5.89495V8.3637H78.8446Z" fill="#222222"/>
<path d="M83.2098 7.10802L83.2126 5.65632H83.3886L84.7847 4.00007H86.1724L84.2966 6.19325H84.01L83.2098 7.10802ZM82.1144 8.3637V2.54552H83.3233V8.3637H82.1144ZM84.8387 8.3637L83.556 6.46313L84.3619 5.60802L86.2547 8.3637H84.8387Z" fill="#222222"/>
<path d="M86.7655 8.3637V4.00007H87.9744V8.3637H86.7655ZM87.3728 3.43757C87.1931 3.43757 87.0389 3.37791 86.9102 3.25859C86.7835 3.13738 86.7201 2.99249 86.7201 2.82393C86.7201 2.65726 86.7835 2.51427 86.9102 2.39495C87.0389 2.27374 87.1931 2.21313 87.3728 2.21313C87.5525 2.21313 87.7058 2.27374 87.8325 2.39495C87.9612 2.51427 88.0255 2.65726 88.0255 2.82393C88.0255 2.99249 87.9612 3.13738 87.8325 3.25859C87.7058 3.37791 87.5525 3.43757 87.3728 3.43757Z" fill="#222222"/>
<path d="M90.1517 5.84098V8.3637H88.9428V4.00007H90.0949V4.76995H90.146C90.2425 4.51617 90.4043 4.31541 90.6313 4.16768C90.8583 4.01806 91.1336 3.94325 91.4571 3.94325C91.7598 3.94325 92.0237 4.00954 92.2488 4.14211C92.4739 4.27469 92.6489 4.46408 92.7738 4.71029C92.8987 4.95461 92.9611 5.24628 92.9611 5.58529V8.3637H91.7522V5.8012C91.7541 5.53416 91.686 5.32582 91.5479 5.1762C91.4098 5.02469 91.2197 4.94893 90.9775 4.94893C90.8148 4.94893 90.671 4.98397 90.5462 5.05404C90.4232 5.12412 90.3267 5.22639 90.2567 5.36086C90.1886 5.49344 90.1536 5.65348 90.1517 5.84098Z" fill="#222222"/>
<path d="M95.8776 10.091C95.486 10.091 95.1502 10.037 94.8702 9.92904C94.5921 9.82298 94.3708 9.6781 94.2062 9.49439C94.0416 9.31067 93.9347 9.10423 93.8855 8.87507L95.0036 8.7245C95.0377 8.81162 95.0916 8.89306 95.1654 8.96882C95.2391 9.04457 95.3366 9.10518 95.4576 9.15064C95.5806 9.19798 95.7301 9.22166 95.906 9.22166C96.169 9.22166 96.3856 9.15726 96.5559 9.02848C96.728 8.90158 96.8141 8.68851 96.8141 8.38927V7.59098H96.763C96.7101 7.71219 96.6306 7.82677 96.5247 7.93473C96.4187 8.04268 96.2825 8.13075 96.116 8.19893C95.9495 8.26711 95.7509 8.3012 95.5201 8.3012C95.1928 8.3012 94.8948 8.22545 94.6262 8.07393C94.3594 7.92052 94.1466 7.68662 93.9877 7.37223C93.8306 7.05594 93.7521 6.65632 93.7521 6.17336C93.7521 5.67904 93.8325 5.26617 93.9934 4.93473C94.1542 4.60329 94.3679 4.35518 94.6347 4.19041C94.9033 4.02564 95.1975 3.94325 95.5172 3.94325C95.7613 3.94325 95.9656 3.98492 96.1302 4.06825C96.2948 4.14969 96.4272 4.25196 96.5275 4.37507C96.6296 4.49628 96.7082 4.6156 96.763 4.73302H96.8084V4.00007H98.0088V8.40632C98.0088 8.77753 97.918 9.08814 97.7364 9.33814C97.5548 9.58814 97.3031 9.77564 96.9815 9.90064C96.6618 10.0275 96.2938 10.091 95.8776 10.091ZM95.9032 7.39211C96.098 7.39211 96.2626 7.34382 96.3969 7.24723C96.5332 7.14874 96.6372 7.00859 96.7091 6.82677C96.7829 6.64306 96.8198 6.42336 96.8198 6.16768C96.8198 5.912 96.7838 5.69041 96.7119 5.50291C96.6401 5.31351 96.536 5.16673 96.3998 5.06257C96.2636 4.9584 96.098 4.90632 95.9032 4.90632C95.7045 4.90632 95.5371 4.96029 95.4009 5.06825C95.2647 5.17431 95.1616 5.32204 95.0916 5.51143C95.0216 5.70082 94.9866 5.91957 94.9866 6.16768C94.9866 6.41957 95.0216 6.63738 95.0916 6.82109C95.1635 7.00291 95.2666 7.14401 95.4009 7.24438C95.5371 7.34287 95.7045 7.39211 95.9032 7.39211Z" fill="#222222"/>
<path d="M35.3137 14.2188C35.291 13.9896 35.1935 13.8116 35.0214 13.6847C34.8492 13.5578 34.6156 13.4944 34.3204 13.4944C34.1199 13.4944 33.9506 13.5228 33.8125 13.5796C33.6744 13.6345 33.5684 13.7112 33.4947 13.8097C33.4228 13.9082 33.3868 14.02 33.3868 14.145C33.383 14.2491 33.4048 14.34 33.4521 14.4177C33.5013 14.4953 33.5684 14.5626 33.6536 14.6194C33.7387 14.6743 33.8371 14.7226 33.9487 14.7643C34.0603 14.804 34.1795 14.8381 34.3063 14.8665L34.8284 14.9915C35.0819 15.0484 35.3146 15.1241 35.5265 15.2188C35.7384 15.3135 35.9219 15.43 36.077 15.5682C36.2322 15.7065 36.3523 15.8694 36.4374 16.0569C36.5245 16.2444 36.5689 16.4593 36.5708 16.7018C36.5689 17.0578 36.4781 17.3665 36.2984 17.6279C36.1205 17.8874 35.8633 18.0891 35.5265 18.233C35.1916 18.3751 34.7877 18.4461 34.3148 18.4461C33.8456 18.4461 33.437 18.3741 33.0889 18.2302C32.7426 18.0862 32.4721 17.8732 32.2772 17.591C32.0843 17.3069 31.9831 16.9556 31.9736 16.537H33.1626C33.1759 16.7321 33.2317 16.895 33.3301 17.0256C33.4303 17.1544 33.5637 17.252 33.7302 17.3182C33.8986 17.3826 34.0887 17.4148 34.3006 17.4148C34.5087 17.4148 34.6894 17.3845 34.8426 17.3239C34.9977 17.2633 35.1179 17.179 35.203 17.0711C35.2881 16.9631 35.3307 16.8391 35.3307 16.6989C35.3307 16.5682 35.2919 16.4584 35.2144 16.3694C35.1387 16.2804 35.0271 16.2046 34.8795 16.1421C34.7338 16.0796 34.555 16.0228 34.3432 15.9717L33.7103 15.8126C33.2203 15.6932 32.8335 15.5067 32.5497 15.2529C32.2659 14.9991 32.125 14.6573 32.1268 14.2273C32.125 13.8751 32.2186 13.5673 32.4078 13.304C32.5989 13.0408 32.8609 12.8353 33.1938 12.6876C33.5268 12.5398 33.9052 12.466 34.329 12.466C34.7603 12.466 35.1368 12.5398 35.4584 12.6876C35.7819 12.8353 36.0335 13.0408 36.2132 13.304C36.393 13.5673 36.4857 13.8722 36.4914 14.2188H35.3137Z" fill="#222222"/>
<path d="M37.3746 20.0001V14.0001H38.5665V14.733H38.6204C38.6734 14.6156 38.75 14.4963 38.8503 14.3751C38.9524 14.252 39.0848 14.1497 39.2475 14.0682C39.4121 13.9849 39.6165 13.9432 39.8605 13.9432C40.1783 13.9432 40.4716 14.0266 40.7402 14.1932C41.0089 14.358 41.2236 14.6071 41.3844 14.9404C41.5452 15.2718 41.6256 15.6876 41.6256 16.1876C41.6256 16.6743 41.5471 17.0853 41.3901 17.4205C41.2349 17.7539 41.0231 18.0067 40.7544 18.179C40.4877 18.3495 40.1887 18.4347 39.8577 18.4347C39.6231 18.4347 39.4235 18.3959 39.2589 18.3182C39.0962 18.2406 38.9628 18.1431 38.8588 18.0256C38.7547 17.9063 38.6753 17.7861 38.6204 17.6648H38.5835V20.0001H37.3746ZM38.558 16.1819C38.558 16.4414 38.5939 16.6677 38.6658 16.8609C38.7377 17.054 38.8417 17.2046 38.978 17.3126C39.1142 17.4186 39.2797 17.4717 39.4746 17.4717C39.6713 17.4717 39.8378 17.4177 39.974 17.3097C40.1102 17.1999 40.2133 17.0484 40.2833 16.8552C40.3552 16.6601 40.3912 16.4357 40.3912 16.1819C40.3912 15.93 40.3562 15.7084 40.2862 15.5171C40.2162 15.3258 40.1131 15.1762 39.9769 15.0682C39.8406 14.9603 39.6732 14.9063 39.4746 14.9063C39.2778 14.9063 39.1113 14.9584 38.9751 15.0626C38.8408 15.1667 38.7377 15.3145 38.6658 15.5057C38.5939 15.697 38.558 15.9224 38.558 16.1819Z" fill="#222222"/>
<path d="M43.6745 18.4461C43.3964 18.4461 43.1486 18.3978 42.931 18.3012C42.7134 18.2027 42.5413 18.0578 42.4145 17.8665C42.2897 17.6734 42.2272 17.4328 42.2272 17.145C42.2272 16.9025 42.2717 16.6989 42.3606 16.5342C42.4495 16.3694 42.5706 16.2368 42.7238 16.1364C42.8771 16.0361 43.0511 15.9603 43.246 15.9092C43.4427 15.858 43.649 15.822 43.8646 15.8012C44.1181 15.7747 44.3225 15.7501 44.4776 15.7273C44.6327 15.7027 44.7453 15.6667 44.8153 15.6194C44.8853 15.572 44.9203 15.502 44.9203 15.4092V15.3921C44.9203 15.2122 44.8635 15.073 44.75 14.9745C44.6384 14.876 44.4795 14.8268 44.2733 14.8268C44.0557 14.8268 43.8826 14.8751 43.7539 14.9717C43.6253 15.0664 43.5402 15.1857 43.4985 15.3296L42.3805 15.2387C42.4372 14.9736 42.5488 14.7444 42.7153 14.5512C42.8818 14.3561 43.0965 14.2065 43.3595 14.1023C43.6244 13.9963 43.9308 13.9432 44.2789 13.9432C44.5211 13.9432 44.7528 13.9717 44.9742 14.0285C45.1974 14.0853 45.3951 14.1734 45.5673 14.2927C45.7413 14.412 45.8785 14.5654 45.9788 14.7529C46.079 14.9385 46.1292 15.1611 46.1292 15.4205V18.3637H44.9827V17.7586H44.9487C44.8787 17.895 44.785 18.0152 44.6677 18.1194C44.5504 18.2217 44.4095 18.3022 44.2449 18.3609C44.0803 18.4177 43.8902 18.4461 43.6745 18.4461ZM44.0207 17.6109C44.1985 17.6109 44.3556 17.5758 44.4918 17.5057C44.628 17.4338 44.7349 17.3372 44.8124 17.216C44.89 17.0948 44.9288 16.9575 44.9288 16.804V16.341C44.891 16.3656 44.8389 16.3883 44.7727 16.4092C44.7084 16.4281 44.6356 16.4461 44.5542 16.4631C44.4729 16.4783 44.3915 16.4925 44.3102 16.5057C44.2288 16.5171 44.155 16.5275 44.0888 16.537C43.9469 16.5578 43.823 16.591 43.7171 16.6364C43.6111 16.6819 43.5288 16.7434 43.4702 16.8211C43.4115 16.8968 43.3822 16.9915 43.3822 17.1052C43.3822 17.27 43.4418 17.3959 43.561 17.483C43.6821 17.5682 43.8353 17.6109 44.0207 17.6109Z" fill="#222222"/>
<path d="M49.0365 18.4489C48.59 18.4489 48.206 18.3542 47.8843 18.1648C47.5646 17.9736 47.3187 17.7084 47.1465 17.3694C46.9763 17.0304 46.8911 16.6402 46.8911 16.1989C46.8911 15.752 46.9772 15.3599 47.1494 15.0228C47.3234 14.6838 47.5703 14.4196 47.89 14.2302C48.2097 14.0389 48.59 13.9432 49.0308 13.9432C49.4111 13.9432 49.744 14.0124 50.0297 14.1506C50.3154 14.2889 50.5415 14.483 50.7079 14.733C50.8744 14.983 50.9662 15.2766 50.9832 15.6137H49.8424C49.8103 15.3959 49.7251 15.2207 49.587 15.0881C49.4508 14.9537 49.272 14.8864 49.0507 14.8864C48.8634 14.8864 48.6997 14.9376 48.5597 15.0398C48.4216 15.1402 48.3138 15.287 48.2362 15.4802C48.1587 15.6734 48.1199 15.9073 48.1199 16.1819C48.1199 16.4603 48.1577 16.697 48.2334 16.8921C48.311 17.0872 48.4197 17.2359 48.5597 17.3381C48.6997 17.4404 48.8634 17.4915 49.0507 17.4915C49.1888 17.4915 49.3127 17.4631 49.4224 17.4063C49.534 17.3495 49.6258 17.2671 49.6977 17.1592C49.7715 17.0493 49.8197 16.9177 49.8424 16.7643H50.9832C50.9643 17.0976 50.8735 17.3912 50.7108 17.645C50.55 17.8968 50.3277 18.0938 50.0439 18.2359C49.7601 18.3779 49.4243 18.4489 49.0365 18.4489Z" fill="#222222"/>
<path d="M53.7437 18.4489C53.2953 18.4489 52.9093 18.358 52.5858 18.1762C52.2642 17.9925 52.0164 17.733 51.8423 17.3978C51.6683 17.0607 51.5813 16.662 51.5813 16.2018C51.5813 15.7529 51.6683 15.359 51.8423 15.02C52.0164 14.6809 52.2614 14.4167 52.5773 14.2273C52.8952 14.0379 53.2679 13.9432 53.6954 13.9432C53.983 13.9432 54.2507 13.9896 54.4985 14.0825C54.7482 14.1734 54.9658 14.3107 55.1512 14.4944C55.3385 14.6781 55.4842 14.9092 55.5882 15.1876C55.6923 15.4641 55.7443 15.7879 55.7443 16.1592V16.4915H52.0637V15.7415H54.6063C54.6063 15.5673 54.5685 15.4129 54.4928 15.2785C54.4172 15.144 54.3122 15.0389 54.1778 14.9631C54.0454 14.8855 53.8912 14.8467 53.7153 14.8467C53.5318 14.8467 53.3691 14.8893 53.2272 14.9745C53.0872 15.0578 52.9775 15.1705 52.898 15.3126C52.8185 15.4527 52.7779 15.609 52.776 15.7813V16.4944C52.776 16.7103 52.8157 16.8968 52.8952 17.054C52.9765 17.2112 53.091 17.3325 53.2385 17.4177C53.3861 17.5029 53.5611 17.5455 53.7635 17.5455C53.8978 17.5455 54.0208 17.5266 54.1324 17.4887C54.244 17.4508 54.3396 17.394 54.419 17.3182C54.4985 17.2425 54.559 17.1497 54.6007 17.0398L55.7188 17.1137C55.662 17.3826 55.5456 17.6175 55.3697 17.8182C55.1957 18.0171 54.9705 18.1724 54.6943 18.2842C54.42 18.394 54.1031 18.4489 53.7437 18.4489Z" fill="#222222"/>
<path d="M58.3714 18.3637V17.4773L60.4401 15.5597C60.6161 15.3893 60.7636 15.2359 60.8828 15.0995C61.0039 14.9631 61.0956 14.8296 61.1581 14.6989C61.2205 14.5664 61.2517 14.4234 61.2517 14.27C61.2517 14.0995 61.2129 13.9527 61.1354 13.8296C61.0578 13.7046 60.9519 13.609 60.8175 13.5427C60.6832 13.4745 60.5309 13.4404 60.3607 13.4404C60.1828 13.4404 60.0277 13.4764 59.8953 13.5484C59.7628 13.6203 59.6607 13.7236 59.5888 13.858C59.5169 13.9925 59.4809 14.1525 59.4809 14.3381H58.3146C58.3146 13.9575 58.4007 13.627 58.5729 13.3467C58.745 13.0664 58.9862 12.8495 59.2965 12.6961C59.6068 12.5427 59.9643 12.466 60.3692 12.466C60.7854 12.466 61.1477 12.5398 61.456 12.6876C61.7663 12.8334 62.0075 13.0361 62.1797 13.2955C62.3518 13.555 62.4379 13.8523 62.4379 14.1876C62.4379 14.4073 62.3944 14.6241 62.3074 14.8381C62.2222 15.0521 62.0699 15.2898 61.8505 15.5512C61.631 15.8107 61.3217 16.1222 60.9225 16.4859L60.074 17.3182V17.358H62.5145V18.3637H58.3714Z" fill="#222222"/>
<path d="M65.6836 18.4915C65.1955 18.4897 64.7755 18.3694 64.4236 18.1307C64.0737 17.8921 63.8041 17.5465 63.6149 17.0938C63.4276 16.6412 63.3349 16.0967 63.3368 15.4603C63.3368 14.8258 63.4304 14.2851 63.6177 13.8381C63.8069 13.3912 64.0765 13.0512 64.4265 12.8182C64.7784 12.5834 65.1974 12.466 65.6836 12.466C66.1698 12.466 66.5879 12.5834 66.9379 12.8182C67.2898 13.0531 67.5603 13.394 67.7495 13.841C67.9387 14.2861 68.0324 14.8258 68.0305 15.4603C68.0305 16.0986 67.9359 16.644 67.7467 17.0967C67.5594 17.5493 67.2908 17.895 66.9408 18.1336C66.5908 18.3722 66.1717 18.4915 65.6836 18.4915ZM65.6836 17.4717C66.0166 17.4717 66.2824 17.304 66.481 16.9688C66.6797 16.6336 66.7781 16.1307 66.7762 15.4603C66.7762 15.019 66.7308 14.6516 66.64 14.358C66.551 14.0645 66.4243 13.8438 66.2597 13.6961C66.097 13.5484 65.905 13.4745 65.6836 13.4745C65.3526 13.4745 65.0877 13.6402 64.889 13.9717C64.6904 14.3031 64.5901 14.7993 64.5882 15.4603C64.5882 15.9073 64.6327 16.2804 64.7216 16.5796C64.8124 16.877 64.9401 17.1004 65.1047 17.2501C65.2693 17.3978 65.4623 17.4717 65.6836 17.4717Z" fill="#222222"/>
<path d="M68.9066 18.3637V17.4773L70.9754 15.5597C71.1513 15.3893 71.2989 15.2359 71.4181 15.0995C71.5392 14.9631 71.6309 14.8296 71.6933 14.6989C71.7558 14.5664 71.787 14.4234 71.787 14.27C71.787 14.0995 71.7482 13.9527 71.6706 13.8296C71.5931 13.7046 71.4871 13.609 71.3528 13.5427C71.2185 13.4745 71.0662 13.4404 70.8959 13.4404C70.7181 13.4404 70.563 13.4764 70.4305 13.5484C70.2981 13.6203 70.1959 13.7236 70.124 13.858C70.0522 13.9925 70.0162 14.1525 70.0162 14.3381H68.8499C68.8499 13.9575 68.936 13.627 69.1081 13.3467C69.2803 13.0664 69.5215 12.8495 69.8318 12.6961C70.142 12.5427 70.4996 12.466 70.9044 12.466C71.3206 12.466 71.6829 12.5398 71.9913 12.6876C72.3016 12.8334 72.5428 13.0361 72.7149 13.2955C72.8871 13.555 72.9732 13.8523 72.9732 14.1876C72.9732 14.4073 72.9297 14.6241 72.8426 14.8381C72.7575 15.0521 72.6052 15.2898 72.3858 15.5512C72.1663 15.8107 71.857 16.1222 71.4578 16.4859L70.6093 17.3182V17.358H73.0498V18.3637H68.9066Z" fill="#222222"/>
<path d="M76.0884 18.4432C75.6646 18.4432 75.2872 18.3703 74.9561 18.2245C74.6269 18.0768 74.3668 17.8741 74.1757 17.6165C73.9865 17.3571 73.8891 17.0578 73.8834 16.7188H75.1207C75.1282 16.8609 75.1746 16.9859 75.2597 17.0938C75.3467 17.1999 75.4622 17.2823 75.6059 17.341C75.7497 17.3997 75.9115 17.429 76.0912 17.429C76.2785 17.429 76.444 17.3959 76.5878 17.3296C76.7316 17.2633 76.8442 17.1715 76.9255 17.054C77.0069 16.9366 77.0475 16.8012 77.0475 16.6478C77.0475 16.4925 77.004 16.3552 76.917 16.2359C76.8319 16.1147 76.7089 16.02 76.5481 15.9518C76.3892 15.8836 76.2 15.8495 75.9805 15.8495H75.4385V14.9461H75.9805C76.1659 14.9461 76.3296 14.9139 76.4715 14.8495C76.6152 14.7851 76.7269 14.6961 76.8063 14.5825C76.8858 14.4669 76.9255 14.3325 76.9255 14.179C76.9255 14.0332 76.8905 13.9054 76.8205 13.7955C76.7524 13.6838 76.6559 13.5967 76.531 13.5342C76.4081 13.4717 76.2643 13.4404 76.0997 13.4404C75.9332 13.4404 75.7809 13.4707 75.6428 13.5313C75.5047 13.59 75.394 13.6743 75.3108 13.7842C75.2276 13.894 75.1831 14.0228 75.1774 14.1705H73.9997C74.0054 13.8353 74.101 13.5398 74.2864 13.2842C74.4718 13.0285 74.7215 12.8287 75.0355 12.6847C75.3515 12.5389 75.7081 12.466 76.1054 12.466C76.5065 12.466 76.8574 12.5389 77.1582 12.6847C77.459 12.8306 77.6926 13.0275 77.8591 13.2756C78.0275 13.5218 78.1108 13.7984 78.1089 14.1052C78.1108 14.4309 78.0095 14.7027 77.8052 14.9205C77.6028 15.1383 77.3389 15.2766 77.0135 15.3353V15.3807C77.441 15.4357 77.7664 15.5843 77.9897 15.8268C78.2148 16.0673 78.3264 16.3684 78.3245 16.7302C78.3264 17.0616 78.2309 17.3561 78.0379 17.6137C77.8468 17.8713 77.5829 18.0739 77.2462 18.2217C76.9094 18.3694 76.5235 18.4432 76.0884 18.4432Z" fill="#222222"/>
<defs>
<clipPath id="clip0_4108_737">
<rect width="23.9736" height="20" fill="white"/>
</clipPath>
</defs>
</svg>
