<svg width="107" height="20" viewBox="0 0 107 20" fill="none" xmlns="http://www.w3.org/2000/svg">
<g clip-path="url(#clip0_4108_1371)">
<path d="M25.7908 0.849731H28.4622V15.3758H32.8579V17.7968H25.7908V0.849731Z" fill="#222222"/>
<path d="M37.9056 18.0389C36.5941 18.0389 35.5903 17.6677 34.8941 16.9253C34.1979 16.1828 33.8499 15.1337 33.8499 13.7779V4.86865C33.8499 3.51288 34.1979 2.46377 34.8941 1.72133C35.5903 0.978887 36.5941 0.607666 37.9056 0.607666C39.217 0.607666 40.2208 0.978887 40.917 1.72133C41.6132 2.46377 41.9613 3.51288 41.9613 4.86865V13.7779C41.9613 15.1337 41.6132 16.1828 40.917 16.9253C40.2208 17.6677 39.217 18.0389 37.9056 18.0389ZM37.9056 15.6179C38.8284 15.6179 39.2899 15.0611 39.2899 13.9474V4.69917C39.2899 3.58551 38.8284 3.02867 37.9056 3.02867C36.9827 3.02867 36.5212 3.58551 36.5212 4.69917V13.9474C36.5212 15.0611 36.9827 15.6179 37.9056 15.6179Z" fill="#222222"/>
<path d="M47.5566 18.0389C46.2614 18.0389 45.2738 17.6758 44.5937 16.9495C43.9137 16.2071 43.5737 15.1499 43.5737 13.7779V4.86865C43.5737 3.49674 43.9137 2.44763 44.5937 1.72133C45.2738 0.978887 46.2614 0.607666 47.5566 0.607666C48.8518 0.607666 49.8395 0.978887 50.5194 1.72133C51.1995 2.44763 51.5395 3.49674 51.5395 4.86865V6.32125H49.0137V4.69917C49.0137 3.58551 48.5523 3.02867 47.6294 3.02867C46.7066 3.02867 46.2452 3.58551 46.2452 4.69917V13.9717C46.2452 15.0692 46.7066 15.6179 47.6294 15.6179C48.5523 15.6179 49.0137 15.0692 49.0137 13.9717V10.6549H47.678V8.23387H51.5395V13.7779C51.5395 15.1499 51.1995 16.2071 50.5194 16.9495C49.8395 17.6758 48.8518 18.0389 47.5566 18.0389Z" fill="#222222"/>
<path d="M57.116 18.0389C55.8046 18.0389 54.8008 17.6677 54.1046 16.9253C53.4084 16.1828 53.0603 15.1337 53.0603 13.7779V4.86865C53.0603 3.51288 53.4084 2.46377 54.1046 1.72133C54.8008 0.978887 55.8046 0.607666 57.116 0.607666C58.4275 0.607666 59.4313 0.978887 60.1275 1.72133C60.8237 2.46377 61.1718 3.51288 61.1718 4.86865V13.7779C61.1718 15.1337 60.8237 16.1828 60.1275 16.9253C59.4313 17.6677 58.4275 18.0389 57.116 18.0389ZM57.116 15.6179C58.0389 15.6179 58.5003 15.0611 58.5003 13.9474V4.69917C58.5003 3.58551 58.0389 3.02867 57.116 3.02867C56.1932 3.02867 55.7318 3.58551 55.7318 4.69917V13.9474C55.7318 15.0611 56.1932 15.6179 57.116 15.6179Z" fill="#222222"/>
<path d="M62.9834 0.849731H65.6549V17.7968H62.9834V0.849731Z" fill="#222222"/>
<path d="M67.6555 0.849731H71.5898C72.9172 0.849731 73.913 1.20481 74.5771 1.91498C75.2411 2.62514 75.5728 3.66617 75.5728 5.03808V6.70856C75.5728 8.0805 75.2411 9.1215 74.5771 9.8317C73.913 10.5418 72.9172 10.8969 71.5898 10.8969H70.3272V17.7968H67.6555V0.849731ZM71.5898 8.4759C72.0271 8.4759 72.3508 8.35483 72.5615 8.11277C72.7882 7.87063 72.9012 7.4591 72.9012 6.87803V4.86861C72.9012 4.28756 72.7882 3.87599 72.5615 3.63389C72.3508 3.39179 72.0271 3.27074 71.5898 3.27074H70.3272V8.4759H71.5898Z" fill="#222222"/>
<path d="M80.591 18.0389C79.2963 18.0389 78.3166 17.6758 77.6525 16.9495C76.9891 16.2071 76.6567 15.1499 76.6567 13.7779V12.8095H79.1826V13.9717C79.1826 15.0692 79.644 15.6179 80.5669 15.6179C81.0203 15.6179 81.3601 15.4888 81.5868 15.2306C81.8295 14.9562 81.9512 14.5204 81.9512 13.9232C81.9512 13.2131 81.7894 12.5917 81.4657 12.0591C81.142 11.5103 80.5428 10.8566 79.6681 10.098C78.5674 9.1296 77.7983 8.25807 77.3609 7.48333C76.9242 6.69247 76.7056 5.80477 76.7056 4.82023C76.7056 3.4806 77.0453 2.44763 77.7254 1.72133C78.4055 0.978887 79.3933 0.607666 80.6886 0.607666C81.9673 0.607666 82.9309 0.978887 83.5783 1.72133C84.2424 2.44763 84.5741 3.49674 84.5741 4.86865V5.57074H82.0482V4.69917C82.0482 4.11813 81.9352 3.69849 81.7085 3.44025C81.4818 3.16587 81.1501 3.02867 80.7127 3.02867C79.8219 3.02867 79.3772 3.56937 79.3772 4.65075C79.3772 5.26407 79.539 5.83705 79.8627 6.36967C80.2024 6.90227 80.8097 7.54787 81.6844 8.30647C82.8012 9.27487 83.5703 10.1545 83.9916 10.9454C84.4122 11.7363 84.6229 12.6643 84.6229 13.7295C84.6229 15.1176 84.2745 16.1828 83.5783 16.9253C82.8982 17.6677 81.9024 18.0389 80.591 18.0389Z" fill="#222222"/>
<path d="M90.0404 18.0389C88.7451 18.0389 87.7573 17.6758 87.0772 16.9494C86.3971 16.207 86.0574 15.1498 86.0574 13.7779V0.849731H88.729V13.9716C88.729 14.5526 88.842 14.9723 89.0687 15.2306C89.3115 15.4888 89.6519 15.6179 90.0886 15.6179C90.526 15.6179 90.8577 15.4888 91.0844 15.2306C91.3271 14.9723 91.4488 14.5526 91.4488 13.9716V0.849731H94.0229V13.7779C94.0229 15.1498 93.6831 16.207 93.003 16.9494C92.3229 17.6758 91.3351 18.0389 90.0404 18.0389Z" fill="#222222"/>
<path d="M95.9255 0.849731H99.7387L101.439 12.979H101.487L103.187 0.849731H107V17.7968H104.474V4.96545H104.426L102.483 17.7968H100.248L98.3056 4.96545H98.2575V17.7968H95.9255V0.849731Z" fill="#222222"/>
<path d="M0 17.7968C3.28656 17.7968 5.95081 15.1408 5.95081 11.8646C5.95081 8.58822 3.28656 5.93225 0 5.93225V10.0848C0.985958 10.0848 1.78523 10.8816 1.78523 11.8646C1.78523 12.8474 0.985958 13.6442 0 13.6442V17.7968Z" fill="#222222"/>
<path d="M19.8362 7.90968C18.8193 7.58855 17.7363 7.41528 16.6128 7.41528C10.7244 7.41528 5.95093 12.1739 5.95093 18.044C5.95093 18.6332 5.99902 19.2111 6.09149 19.7742H12.716C12.4796 19.2457 12.3481 18.6602 12.3481 18.044C12.3481 15.6959 14.2574 13.7925 16.6128 13.7925C17.9001 13.7925 19.0542 14.3611 19.8362 15.2601V7.90968Z" fill="#222222"/>
<path d="M1.04639 0C1.53975 4.44916 5.32357 7.90973 9.91815 7.90973C14.5127 7.90973 18.2965 4.44916 18.7899 0H12.4063C12.0122 0.984867 11.0467 1.68081 9.91815 1.68081C8.78957 1.68081 7.82409 0.984867 7.42993 0H1.04639Z" fill="#222222"/>
</g>
<defs>
<clipPath id="clip0_4108_1371">
<rect width="107" height="20" fill="white"/>
</clipPath>
</defs>
</svg>
