<svg width="116" height="28" viewBox="0 0 116 28" fill="none" xmlns="http://www.w3.org/2000/svg">
<g clip-path="url(#clip0_4108_1395)">
<path d="M35.387 19.2162H43.5424V16.7577H38.2856V7.49719H35.387V19.2162Z" fill="#222222"/>
<path d="M48.3741 17.5772C47.2114 17.5772 46.6054 16.561 46.6054 15.0367C46.6054 13.5124 47.2114 12.4798 48.3741 12.4798C49.5368 12.4798 50.1591 13.5124 50.1591 15.0367C50.1591 16.561 49.5368 17.5772 48.3741 17.5772ZM48.3905 19.4785C51.0926 19.4785 52.8612 17.5608 52.8612 15.0367C52.8612 12.5126 51.0926 10.595 48.3905 10.595C45.7047 10.595 43.9033 12.5126 43.9033 15.0367C43.9033 17.5608 45.7047 19.4785 48.3905 19.4785Z" fill="#222222"/>
<path d="M57.5384 22.1172C58.783 22.1172 59.8803 21.8386 60.6172 21.183C61.2886 20.5765 61.7308 19.6587 61.7308 18.3966V10.8243H59.1761V11.7258H59.1433C58.652 11.021 57.8987 10.5785 56.7851 10.5785C54.7053 10.5785 53.2642 12.3159 53.2642 14.7744C53.2642 17.3477 55.0164 18.7572 56.8997 18.7572C57.9151 18.7572 58.5538 18.3475 59.0451 17.7902H59.1106V18.6261C59.1106 19.6423 58.6356 20.2323 57.5057 20.2323C56.6213 20.2323 56.1792 19.8554 56.0318 19.4128H53.4443C53.7063 21.1666 55.2293 22.1172 57.5384 22.1172ZM57.522 16.774C56.5231 16.774 55.868 15.9545 55.868 14.6924C55.868 13.414 56.5231 12.5945 57.522 12.5945C58.6356 12.5945 59.2252 13.5451 59.2252 14.6761C59.2252 15.8561 58.6848 16.774 57.522 16.774Z" fill="#222222"/>
<path d="M66.984 17.5772C65.8212 17.5772 65.2153 16.561 65.2153 15.0367C65.2153 13.5124 65.8212 12.4798 66.984 12.4798C68.1467 12.4798 68.769 13.5124 68.769 15.0367C68.769 16.561 68.1467 17.5772 66.984 17.5772ZM67.0003 19.4785C69.7025 19.4785 71.4711 17.5608 71.4711 15.0367C71.4711 12.5126 69.7025 10.595 67.0003 10.595C64.3146 10.595 62.5132 12.5126 62.5132 15.0367C62.5132 17.5608 64.3146 19.4785 67.0003 19.4785Z" fill="#222222"/>
<path d="M72.2502 19.2162H74.9196V10.8244H72.2502V19.2162ZM72.2502 9.6607H74.9196V7.49719H72.2502V9.6607Z" fill="#222222"/>
<path d="M76.0784 21.9861H78.7477V18.3475H78.7805C79.3045 19.0522 80.0742 19.4784 81.1551 19.4784C83.3495 19.4784 84.807 17.741 84.807 15.0202C84.807 12.4961 83.4478 10.5785 81.2206 10.5785C80.0742 10.5785 79.2554 11.0866 78.6822 11.8405H78.6331V10.8243H76.0784V21.9861ZM80.4673 17.4132C79.3209 17.4132 78.6659 16.479 78.6659 15.1186C78.6659 13.7582 79.2554 12.7256 80.4181 12.7256C81.5645 12.7256 82.1049 13.6762 82.1049 15.1186C82.1049 16.5445 81.4826 17.4132 80.4673 17.4132Z" fill="#222222"/>
<path d="M89.1529 19.4784C91.3474 19.4784 92.9686 18.5278 92.9686 16.6921C92.9686 14.5449 91.2327 14.168 89.7589 13.9221C88.6944 13.7254 87.7446 13.6435 87.7446 13.0534C87.7446 12.5289 88.2522 12.2831 88.9073 12.2831C89.6442 12.2831 90.1519 12.5125 90.2502 13.2665H92.7066C92.5756 11.6111 91.2983 10.5785 88.9237 10.5785C86.9421 10.5785 85.3045 11.4963 85.3045 13.2665C85.3045 15.2333 86.8602 15.6267 88.3177 15.8725C89.4313 16.0692 90.4467 16.1512 90.4467 16.9051C90.4467 17.446 89.939 17.741 89.1366 17.741C88.2522 17.741 87.6954 17.3313 87.5972 16.4954H85.0752C85.1571 18.3475 86.6965 19.4784 89.1529 19.4784Z" fill="#222222"/>
<path d="M96.5945 19.462C97.7572 19.462 98.4942 19.0031 99.1001 18.1836H99.1492V19.2161H101.704V10.8243H99.0346V15.512C99.0346 16.5118 98.4778 17.2001 97.5607 17.2001C96.7091 17.2001 96.2997 16.692 96.2997 15.7742V10.8243H93.6467V16.3315C93.6467 18.2 94.6621 19.462 96.5945 19.462Z" fill="#222222"/>
<path d="M102.865 19.2162H105.534V14.5121C105.534 13.5123 106.025 12.8076 106.861 12.8076C107.663 12.8076 108.04 13.3321 108.04 14.2335V19.2162H110.709V14.5121C110.709 13.5123 111.184 12.8076 112.036 12.8076C112.838 12.8076 113.215 13.3321 113.215 14.2335V19.2162H115.884V13.7582C115.884 11.8733 114.934 10.5785 113.035 10.5785C111.954 10.5785 111.053 11.0374 110.398 12.0536H110.365C109.939 11.1521 109.104 10.5785 108.007 10.5785C106.795 10.5785 105.993 11.1521 105.469 12.0208H105.419V10.8243H102.865V19.2162Z" fill="#222222"/>
<path fill-rule="evenodd" clip-rule="evenodd" d="M14.1139 27.4113C21.6509 27.4113 27.7609 21.2962 27.7609 13.7528C27.7609 6.20938 21.6509 0.0942383 14.1139 0.0942383C6.57678 0.0942383 0.466797 6.20938 0.466797 13.7528C0.466797 21.2962 6.57678 27.4113 14.1139 27.4113ZM18.3713 6.45696C18.5785 5.72022 17.8641 5.28457 17.2118 5.74976L8.10445 12.2432C7.39692 12.7477 7.50821 13.7528 8.27163 13.7528H10.6698V13.7342H15.3438L11.5354 15.0791L9.85646 21.0486C9.64923 21.7853 10.3635 22.221 11.016 21.7558L20.1233 15.2624C20.8308 14.7579 20.7195 13.7528 19.9561 13.7528H16.3193L18.3713 6.45696Z" fill="#222222"/>
</g>
<defs>
<clipPath id="clip0_4108_1395">
<rect width="116" height="28" fill="white"/>
</clipPath>
</defs>
</svg>
