<svg width="164" height="164" viewBox="0 0 164 164" fill="none" xmlns="http://www.w3.org/2000/svg">
<path fill-rule="evenodd" clip-rule="evenodd" d="M82.0619 35.1721C107.577 35.1721 128.264 56.0752 128.264 81.8605C128.264 107.646 107.577 128.549 82.0619 128.549C56.5454 128.549 35.8603 107.646 35.8603 81.8605C35.8603 56.0752 56.5454 35.1721 82.0619 35.1721ZM80.3919 38.6657C75.121 39.4153 70.1021 43.6952 66.2062 50.8533C65.0761 52.9296 64.0564 55.2235 63.1679 57.7002C68.4654 56.355 74.2847 55.5619 80.3919 55.4392V38.6657ZM59.263 58.8216C60.3681 55.3171 61.7197 52.0929 63.2797 49.2268C65.211 45.6783 67.503 42.6141 70.0855 40.2606C56.0427 44.3819 44.974 55.5674 40.8955 69.7581C43.2246 67.1485 46.2568 64.8323 49.7683 62.8807C52.6046 61.3043 55.7951 59.9382 59.263 58.8216ZM58.1534 62.7675C56.8221 68.1208 56.0374 74.0014 55.9159 80.1729H39.3173C40.0591 74.8465 44.2944 69.7747 51.378 65.8379C53.4326 64.6959 55.7024 63.6655 58.1534 62.7675ZM59.2565 80.1729C59.3944 73.4379 60.354 67.1149 61.9415 61.5281C67.47 59.9239 73.7271 58.9542 80.3919 58.8148V66.105C77.9056 72.5373 72.8345 77.6613 66.469 80.1729H59.2565ZM55.9159 83.548H39.3173C40.0591 88.8745 44.2944 93.946 51.378 97.883C53.4326 99.025 55.7024 100.055 58.1534 100.953C56.8221 95.6002 56.0374 89.7195 55.9159 83.548ZM61.9415 102.193C60.354 96.6061 59.3944 90.2831 59.2565 83.548H66.469C72.8345 86.0596 77.9056 91.1837 80.3919 97.6159V104.906C73.7271 104.767 67.47 103.797 61.9415 102.193ZM59.263 104.899C55.7951 103.783 52.6046 102.417 49.7683 100.84C46.2568 98.8887 43.2246 96.5724 40.8955 93.9628C44.974 108.154 56.0427 119.339 70.0855 123.46C67.503 121.107 65.211 118.043 63.2797 114.494C61.7197 111.628 60.3681 108.404 59.263 104.899ZM80.3919 125.055C75.121 124.306 70.1021 120.026 66.2062 112.868C65.0761 110.791 64.0564 108.497 63.1679 106.021C68.4654 107.366 74.2847 108.159 80.3919 108.282V125.055ZM94.038 123.46C96.6204 121.107 98.9123 118.043 100.844 114.494C102.403 111.628 103.757 108.404 104.861 104.899C108.328 103.783 111.518 102.417 114.355 100.84C117.866 98.8887 120.9 96.5724 123.228 93.9628C119.149 108.154 108.081 119.339 94.038 123.46ZM100.957 106.021C100.067 108.497 99.0463 110.791 97.9166 112.868C94.0214 120.026 89.0025 124.306 83.7316 125.055V108.282C89.8387 108.159 95.6581 107.366 100.957 106.021ZM105.97 100.953C108.421 100.055 110.691 99.025 112.745 97.883C119.83 93.9462 124.064 88.8745 124.806 83.548H108.208C108.086 89.7195 107.3 95.6002 105.97 100.953ZM104.868 83.548C104.729 90.2831 103.77 96.6061 102.181 102.193C96.6535 103.797 90.3964 104.767 83.7316 104.906V97.6213C86.2172 91.1867 91.2895 86.0603 97.6565 83.548H104.868ZM108.208 80.1729H124.806C124.064 74.8465 119.83 69.7747 112.745 65.8379C110.691 64.6959 108.421 63.6655 105.97 62.7675C107.3 68.1208 108.086 74.0014 108.208 80.1729ZM102.181 61.5281C103.77 67.1149 104.729 73.4379 104.868 80.1729H97.6567C91.2895 77.6606 86.2172 72.5342 83.7316 66.0996V58.8148C90.3964 58.9542 96.6535 59.9239 102.181 61.5281ZM104.861 58.8216C108.328 59.9382 111.518 61.3043 114.355 62.8807C117.866 64.8323 120.9 67.1485 123.228 69.7581C119.149 55.5674 108.081 44.3819 94.038 40.2606C96.6204 42.6141 98.9123 45.6783 100.844 49.2268C102.403 52.0929 103.757 55.3171 104.861 58.8216ZM83.7316 38.6657C89.0025 39.4153 94.0214 43.6952 97.9166 50.8533C99.0463 52.9296 100.067 55.2235 100.957 57.7002C95.6581 56.355 89.8387 55.5619 83.7316 55.4392V38.6657Z" fill="white"/>
<path d="M63.4066 153.558L63.3551 164L61.5624 163.39L61.6461 153.959L62.5358 154.262L56.8483 161.784L55.2548 161.242L55.3119 151.802L56.1751 152.096L50.5274 159.632L48.8807 159.071L55.0939 150.727L56.9264 151.351L56.9076 159.877L56.4296 159.714L61.5608 152.929L63.4066 153.558Z" fill="white"/>
<path d="M42.7398 143.955C43.3808 144.379 43.9019 144.876 44.3032 145.446C44.7044 146.016 44.9816 146.622 45.1347 147.265C45.2827 147.915 45.2999 148.57 45.1863 149.228C45.0675 149.894 44.8087 150.535 44.4097 151.151C44.0107 151.768 43.5355 152.26 42.9841 152.629C42.4276 153.005 41.8273 153.251 41.1831 153.367C40.5338 153.49 39.8704 153.48 39.1929 153.337C38.5154 153.194 37.8601 152.912 37.2269 152.494C36.5859 152.07 36.0687 151.576 35.6753 151.011C35.274 150.441 34.9994 149.83 34.8514 149.18C34.6983 148.537 34.6811 147.883 34.7998 147.216C34.9134 146.558 35.1697 145.921 35.5687 145.305C35.9677 144.689 36.4455 144.192 37.002 143.816C37.5585 143.439 38.1588 143.193 38.803 143.078C39.4472 142.962 40.1081 142.976 40.7855 143.119C41.4552 143.258 42.1066 143.536 42.7398 143.955ZM41.8768 145.313C41.4625 145.039 41.0334 144.857 40.5896 144.767C40.1458 144.676 39.7104 144.676 39.2837 144.766C38.8518 144.864 38.453 145.04 38.0872 145.295C37.7085 145.552 37.381 145.894 37.1048 146.321C36.8285 146.747 36.6521 147.183 36.5756 147.629C36.4861 148.078 36.4859 148.518 36.5751 148.949C36.6591 149.388 36.831 149.795 37.0907 150.17C37.3503 150.545 37.6873 150.869 38.1016 151.143C38.5159 151.417 38.945 151.599 39.3888 151.69C39.8249 151.775 40.2627 151.771 40.7024 151.678C41.1292 151.588 41.5319 151.414 41.9106 151.157C42.2764 150.903 42.5974 150.562 42.8736 150.136C43.1448 149.717 43.3251 149.283 43.4146 148.835C43.4962 148.381 43.495 147.935 43.411 147.496C43.3219 147.064 43.1474 146.661 42.8878 146.287C42.6281 145.912 42.2911 145.587 41.8768 145.313Z" fill="white"/>
<path d="M33.3662 136.96L26.3812 143.919L23.5478 141.015C22.9379 140.39 22.5162 139.756 22.2829 139.114C22.0431 138.464 21.9913 137.833 22.1277 137.22C22.2642 136.607 22.5885 136.045 23.1007 135.535C23.6129 135.024 24.1734 134.705 24.782 134.575C25.384 134.453 26.0045 134.517 26.6435 134.769C27.2693 135.02 27.8872 135.459 28.4972 136.084L30.6222 138.262L29.4629 138.264L32.0872 135.649L33.3662 136.96ZM28.8603 132.342L28.0671 136.652L26.6996 135.25L27.483 130.93L28.8603 132.342ZM29.6026 138.125L29.5545 139.326L27.4885 137.208C26.9245 136.63 26.3783 136.319 25.8502 136.275C25.3155 136.225 24.8286 136.418 24.3895 136.856C23.9438 137.3 23.7455 137.789 23.7946 138.323C23.8371 138.851 24.1404 139.404 24.7045 139.982L26.7705 142.1L25.5613 142.151L29.6026 138.125Z" fill="white"/>
<path d="M20.8325 125.943L19.0775 127.216L11.7974 125.805L10.6811 124.072L16.8179 125.188L18.2961 125.432L20.8325 125.943ZM23.657 126.045L15.4368 131.453L14.4428 129.911L22.6631 124.502L23.657 126.045ZM19.9259 120.254L18.2289 125.899L16.4557 125.612L18.7637 118.45L19.9259 120.254Z" fill="white"/>
<path d="M15.3157 110.467C15.6011 111.185 15.7747 111.914 15.8364 112.652C15.8895 113.393 15.8322 114.021 15.6646 114.537L14.1163 114.479C14.2562 113.995 14.3135 113.442 14.2884 112.822C14.2633 112.201 14.1376 111.606 13.9113 111.037C13.7198 110.555 13.5129 110.186 13.2905 109.931C13.0681 109.675 12.8424 109.512 12.6133 109.443C12.3755 109.376 12.144 109.389 11.9186 109.48C11.6412 109.593 11.4601 109.783 11.3755 110.052C11.2822 110.324 11.2523 110.641 11.2857 111.004C11.307 111.361 11.3526 111.755 11.4226 112.184C11.4891 112.605 11.5443 113.035 11.5883 113.475C11.6201 113.91 11.6094 114.326 11.5561 114.724C11.4907 115.117 11.342 115.477 11.11 115.806C10.878 116.134 10.5193 116.396 10.0338 116.593C9.53966 116.794 9.03665 116.845 8.52477 116.748C8.00074 116.645 7.50943 116.371 7.05086 115.927C6.58014 115.477 6.17767 114.832 5.84347 113.991C5.62415 113.439 5.47592 112.863 5.39878 112.264C5.32165 111.664 5.33305 111.11 5.43298 110.602L6.96043 110.607C6.88132 111.118 6.87245 111.615 6.93382 112.098C6.98651 112.586 7.09293 113.031 7.25307 113.434C7.44106 113.907 7.65059 114.269 7.88165 114.522C8.10923 114.765 8.34189 114.92 8.57965 114.986C8.81391 115.044 9.04808 115.025 9.28214 114.93C9.55955 114.817 9.74665 114.629 9.84344 114.366C9.92809 114.098 9.95542 113.787 9.92546 113.433C9.89201 113.07 9.84463 112.672 9.78333 112.239C9.71337 111.81 9.65814 111.379 9.61766 110.948C9.5737 110.508 9.58008 110.094 9.63681 109.704C9.69005 109.306 9.83442 108.948 10.0699 108.628C10.3019 108.3 10.6563 108.039 11.1331 107.846C11.6186 107.649 12.1233 107.602 12.6474 107.704C13.1593 107.802 13.6506 108.076 14.1213 108.526C14.5833 108.979 14.9815 109.626 15.3157 110.467Z" fill="white"/>
<path d="M11.7978 100.345L2.15909 102.184L1.41039 98.1768C1.24921 97.3141 1.24913 96.5503 1.41013 95.8855C1.56941 95.2115 1.87488 94.6584 2.32656 94.2264C2.77823 93.7944 3.35749 93.5109 4.06433 93.3761C4.77117 93.2412 5.41282 93.2917 5.98927 93.5276C6.56573 93.7635 7.04971 94.1659 7.44122 94.7349C7.831 95.2946 8.10648 96.0058 8.26766 96.8685L8.82918 99.8741L7.83846 99.2273L11.4599 98.5363L11.7978 100.345ZM8.03123 99.1905L7.31453 100.163L6.7686 97.241C6.61955 96.4432 6.34253 95.8764 5.93754 95.5406C5.52163 95.1972 5.01075 95.0833 4.40488 95.1989C3.78984 95.3162 3.35521 95.6105 3.101 96.0817C2.84505 96.5437 2.7916 97.1735 2.94065 97.9713L3.48657 100.893L2.45454 100.254L8.03123 99.1905Z" fill="white"/>
<path d="M9.74359 87.215L0 82.6105L0.0261564 80.7981L9.89869 76.4684L9.8709 78.3941L0.974346 82.1008L0.984972 81.3646L9.77098 85.3178L9.74359 87.215ZM7.50338 85.1286L6.08137 84.6119L6.15862 79.2599L7.59493 78.7854L7.50338 85.1286Z" fill="white"/>
<path d="M11.7539 66.7126C11.5939 67.4504 11.3263 68.1111 10.951 68.6948C10.5686 69.2673 10.1074 69.7402 9.56742 70.1134C9.02028 70.4755 8.41757 70.7189 7.7593 70.8437C7.10102 70.9685 6.416 70.9521 5.70423 70.7944C4.99246 70.6368 4.36344 70.3622 3.81717 69.9706C3.2709 69.579 2.82976 69.0995 2.49375 68.5322C2.14862 67.9629 1.92542 67.3384 1.82417 66.6588C1.71379 65.9772 1.7396 65.2629 1.90161 64.516C2.07362 63.7229 2.3675 63.0294 2.78326 62.4353C3.1899 61.8392 3.70686 61.3738 4.33413 61.0392L5.16347 62.4406C4.71333 62.7082 4.35 63.0384 4.07349 63.4314C3.78786 63.8224 3.59004 64.2714 3.48004 64.7786C3.37003 65.2858 3.35116 65.7697 3.42341 66.2302C3.49766 66.6816 3.65135 67.0973 3.88448 67.4776C4.11962 67.8486 4.4235 68.1672 4.79614 68.4333C5.17078 68.6902 5.60448 68.8733 6.09724 68.9824C6.59001 69.0916 7.05971 69.1086 7.50635 69.0336C7.95499 68.9493 8.36288 68.7884 8.73002 68.5508C9.09915 68.304 9.41085 67.9912 9.66511 67.6127C9.92137 67.2249 10.1045 66.7774 10.2145 66.2702C10.3245 65.763 10.3353 65.2725 10.2468 64.7987C10.1491 64.3229 9.94668 63.8673 9.63942 63.432L10.9865 62.5126C11.4086 63.0797 11.6856 63.7209 11.8173 64.4362C11.9491 65.1516 11.9279 65.9104 11.7539 66.7126Z" fill="white"/>
<path d="M9.84756 53.1151L11.796 48.5977L13.1705 49.2031L11.2221 53.7205L9.84756 53.1151ZM13.7573 54.6827L15.9688 49.5552L17.369 50.1719L14.4296 56.9869L5.43759 53.0264L8.29864 46.3931L9.69883 47.0098L7.56563 51.9556L13.7573 54.6827Z" fill="white"/>
<path d="M26.7325 35.7275L17.4098 31.2227L18.7213 29.8451L27.1246 33.9472L26.4737 34.6309L22.1702 26.2225L23.336 24.9979L31.7587 29.0796L31.1272 29.7429L26.7946 21.365L27.9993 20.0997L32.8142 29.3394L31.4735 30.7476L23.8518 27.0909L24.2015 26.7236L28.0829 34.309L26.7325 35.7275Z" fill="white"/>
<path d="M44.1481 20.9406C43.4952 21.3454 42.8281 21.6095 42.1467 21.7328C41.4654 21.8562 40.8044 21.8507 40.1638 21.7162C39.5184 21.5737 38.9254 21.31 38.3849 20.9252C37.8395 20.5324 37.3763 20.0221 36.9952 19.3945C36.6142 18.7669 36.3764 18.1224 36.2818 17.4612C36.1823 16.7919 36.2184 16.1382 36.39 15.5002C36.5567 14.8541 36.8488 14.2522 37.2664 13.6943C37.6839 13.1364 38.2151 12.6575 38.8601 12.2576C39.5131 11.8528 40.1762 11.5912 40.8496 11.4728C41.5309 11.3494 42.1943 11.359 42.8398 11.5015C43.4804 11.6359 44.0734 11.8996 44.6188 12.2924C45.1593 12.6772 45.6201 13.1835 46.0011 13.8111C46.3822 14.4387 46.6224 15.0872 46.7219 15.7565C46.8214 16.4258 46.7853 17.0795 46.6137 17.7175C46.4421 18.3555 46.1475 18.9534 45.73 19.5113C45.3204 20.0643 44.7931 20.5407 44.1481 20.9406ZM43.3008 19.572C43.7228 19.3104 44.0691 18.996 44.3394 18.629C44.6098 18.2621 44.7958 17.8643 44.8974 17.4359C44.994 16.9994 45.0066 16.5597 44.9349 16.1168C44.8664 15.6609 44.7002 15.2157 44.4364 14.7812C44.1726 14.3466 43.8576 13.9993 43.4913 13.739C43.1282 13.4658 42.7346 13.2778 42.3106 13.1752C41.8818 13.0645 41.4442 13.0479 40.9979 13.1252C40.5517 13.2025 40.1175 13.372 39.6955 13.6336C39.2735 13.8952 38.9273 14.2096 38.6569 14.5766C38.3945 14.9386 38.2109 15.3404 38.1063 15.7818C38.0047 16.2102 37.9882 16.6524 38.0568 17.1083C38.1284 17.5512 38.2961 17.9899 38.5599 18.4244C38.8188 18.8509 39.1299 19.2008 39.493 19.474C39.8642 19.7423 40.2642 19.9318 40.693 20.0425C41.117 20.1451 41.5521 20.1577 41.9984 20.0804C42.4446 20.0031 42.8788 19.8336 43.3008 19.572Z" fill="white"/>
<path d="M54.4092 15.3609L51.1632 6.0071L54.9715 4.65755C55.7914 4.36702 56.5386 4.25229 57.2132 4.31336C57.8966 4.3713 58.4835 4.59348 58.974 4.97989C59.4645 5.36629 59.8287 5.90247 60.0668 6.58842C60.3048 7.27436 60.3517 7.923 60.2075 8.53434C60.0601 9.13676 59.7375 9.67625 59.2396 10.1528C58.7474 10.6173 58.0914 10.9949 57.2716 11.2854L54.4153 12.2976L54.9087 11.2374L56.1283 14.7517L54.4092 15.3609ZM60.4655 13.2148L56.9471 10.6501L58.7852 9.99872L62.3168 12.5587L60.4655 13.2148ZM54.9736 11.4245L53.9191 10.8678L56.6961 9.88371C57.4542 9.61505 57.9656 9.24875 58.2303 8.78481C58.5038 8.31774 58.5385 7.79023 58.3345 7.20228C58.1274 6.60542 57.7742 6.21536 57.275 6.03211C56.7847 5.84574 56.1604 5.88689 55.4023 6.15555L52.6254 7.1396L53.0956 6.01261L54.9736 11.4245Z" fill="white"/>
<path d="M69.618 8.61001L69.228 6.46292L73.5988 0.412602L75.6258 0.132105L72.0073 5.26362L71.1579 6.51028L69.618 8.61001ZM68.3212 11.1477L66.9904 1.3271L68.7952 1.07734L70.126 10.898L68.3212 11.1477ZM75.0962 10.2102L70.769 6.24966L71.7824 4.75164L77.2065 9.91816L75.0962 10.2102Z" fill="white"/>
<path d="M85.8224 10.1748C85.0577 10.1291 84.332 9.97686 83.6453 9.71824C82.9591 9.4502 82.4211 9.12956 82.0312 8.75632L82.7444 7.3663C83.1178 7.70074 83.5876 7.98892 84.1536 8.23085C84.7196 8.47279 85.3057 8.6119 85.9119 8.64819C86.4248 8.67889 86.8431 8.64719 87.1668 8.55309C87.4905 8.45899 87.7325 8.32216 87.8927 8.14262C88.0535 7.95365 88.1411 7.73666 88.1555 7.49164C88.1732 7.19008 88.08 6.94336 87.876 6.75147C87.6726 6.55015 87.4014 6.38734 87.0624 6.26302C86.7333 6.12984 86.3617 6.00356 85.9476 5.8842C85.5428 5.7654 85.1342 5.63219 84.7217 5.48456C84.3191 5.32806 83.9511 5.14053 83.6176 4.92198C83.2941 4.69456 83.035 4.4048 82.8404 4.05271C82.6458 3.70061 82.5639 3.2607 82.5949 2.73297C82.6264 2.19581 82.795 1.71415 83.1007 1.28798C83.4163 0.852951 83.871 0.520807 84.4646 0.291555C85.0681 0.0534375 85.8175 -0.0388243 86.7128 0.0147696C87.3003 0.0499406 87.8787 0.160223 88.4481 0.345616C89.0174 0.531008 89.5083 0.777901 89.9207 1.08629L89.2635 2.47966C88.8407 2.18955 88.3997 1.96929 87.9406 1.81887C87.482 1.65902 87.0383 1.56626 86.6093 1.54058C86.1057 1.51043 85.6918 1.54712 85.3676 1.65065C85.0526 1.75474 84.8148 1.90126 84.654 2.09023C84.5025 2.27975 84.4193 2.50174 84.4044 2.75618C84.3867 3.05774 84.4749 3.3089 84.669 3.50965C84.873 3.70155 85.1398 3.85937 85.4695 3.98313C85.8084 4.10745 86.1847 4.234 86.5983 4.36278C87.0124 4.48214 87.421 4.61536 87.8242 4.76243C88.2366 4.91006 88.6049 5.09287 88.9291 5.31087C89.2625 5.52943 89.5219 5.81447 89.7071 6.16601C89.9017 6.5181 89.9838 6.95331 89.9535 7.47161C89.9225 7.99934 89.7492 8.48072 89.4336 8.91576C89.1279 9.34192 88.6733 9.67407 88.0697 9.91219C87.4668 10.1409 86.7176 10.2284 85.8224 10.1748Z" fill="white"/>
<path d="M96.3823 11.2808L98.8513 1.68761L102.757 2.7141C103.598 2.93508 104.281 3.26103 104.808 3.69194C105.343 4.12523 105.707 4.64047 105.901 5.23764C106.095 5.83482 106.101 6.48516 105.92 7.18865C105.739 7.89215 105.42 8.45695 104.963 8.88304C104.506 9.30914 103.939 9.57963 103.263 9.69452C102.595 9.81178 101.841 9.75993 101.001 9.53895L98.0712 8.76908L99.073 8.13983L98.1453 11.7441L96.3823 11.2808ZM99.0236 8.33169L98.4592 7.26158L101.307 8.01007C102.085 8.21441 102.71 8.20322 103.184 7.97648C103.668 7.74299 103.988 7.32474 104.144 6.72174C104.301 6.10961 104.223 5.58681 103.91 5.15335C103.606 4.72227 103.065 4.40456 102.288 4.20021L99.4397 3.45173L100.452 2.78136L99.0236 8.33169Z" fill="white"/>
<path d="M109.009 15.0088L117.289 8.07043L118.9 8.86798L118.56 19.738L116.848 18.8906L117.329 9.17837L117.983 9.50237L110.695 15.8438L109.009 15.0088ZM111.833 13.8523L112.902 12.7734L117.658 15.1287L117.47 16.6438L111.833 13.8523Z" fill="white"/>
<path d="M126.499 25.5978C125.907 25.1367 125.43 24.6101 125.067 24.018C124.718 23.4242 124.492 22.8008 124.389 22.148C124.298 21.4935 124.338 20.8388 124.507 20.184C124.676 19.5291 124.983 18.9101 125.428 18.327C125.873 17.7439 126.387 17.2863 126.971 16.9542C127.555 16.6222 128.172 16.4237 128.823 16.3589C129.48 16.2865 130.134 16.3491 130.785 16.5467C131.443 16.7368 132.071 17.0653 132.67 17.5322C133.306 18.0279 133.801 18.5925 134.156 19.2261C134.515 19.8521 134.711 20.5232 134.743 21.2392L133.135 21.3989C133.088 20.8733 132.947 20.4003 132.713 19.9799C132.486 19.552 132.168 19.1795 131.761 18.8625C131.354 18.5455 130.929 18.3217 130.486 18.1911C130.051 18.0663 129.613 18.0292 129.173 18.08C128.741 18.1365 128.326 18.2782 127.929 18.5051C127.539 18.7377 127.19 19.0559 126.882 19.4597C126.574 19.8634 126.358 20.2853 126.235 20.7255C126.119 21.1714 126.089 21.6129 126.144 22.0498C126.208 22.4925 126.355 22.9108 126.585 23.3048C126.822 23.7045 127.145 24.0629 127.552 24.3799C127.958 24.6969 128.393 24.9162 128.855 25.0375C129.322 25.1515 129.816 25.1609 130.337 25.066L130.585 26.6894C129.897 26.8331 129.205 26.8125 128.509 26.6275C127.812 26.4425 127.142 26.0993 126.499 25.5978Z" fill="white"/>
<path d="M139.48 29.6601L142.691 33.369L141.563 34.3666L138.352 30.6577L139.48 29.6601ZM136.409 32.5638L140.053 36.7736L138.903 37.7898L134.06 32.1945L141.442 25.668L146.157 31.1141L145.007 32.1304L141.492 28.0698L136.409 32.5638Z" fill="white"/>
<path d="M147.833 52.5126L155.844 45.9161L156.516 47.7027L149.258 53.6308L148.924 52.7441L158.286 52.4009L158.884 53.989L151.636 59.9435L151.312 59.0833L160.659 58.7003L161.277 60.3414L150.953 60.7971L150.265 58.9708L156.791 53.5668L156.971 54.0432L148.526 54.3521L147.833 52.5126Z" fill="white"/>
<path d="M153.631 74.7398C153.547 73.9703 153.596 73.2479 153.776 72.5726C153.956 71.8973 154.244 71.2957 154.637 70.7677C155.04 70.2387 155.53 69.8093 156.105 69.4797C156.689 69.149 157.343 68.9435 158.068 68.8632C158.792 68.7829 159.47 68.8407 160.102 69.0365C160.744 69.2313 161.313 69.5433 161.811 69.9725C162.318 70.4006 162.732 70.9246 163.053 71.5443C163.374 72.164 163.576 72.8539 163.658 73.614C163.742 74.3835 163.693 75.1012 163.511 75.7671C163.331 76.4423 163.039 77.0445 162.636 77.5735C162.242 78.1015 161.753 78.5309 161.169 78.8615C160.594 79.1912 159.944 79.3962 159.22 79.4765C158.495 79.5568 157.813 79.4995 157.171 79.3047C156.53 79.1099 155.96 78.7979 155.462 78.3687C154.965 77.9395 154.555 77.4151 154.234 76.7954C153.914 76.1851 153.713 75.4999 153.631 74.7398ZM155.217 74.5497C155.271 75.047 155.405 75.4976 155.618 75.9013C155.831 76.3051 156.107 76.6448 156.447 76.9205C156.796 77.1952 157.185 77.3943 157.612 77.5179C158.049 77.6499 158.518 77.6881 159.02 77.6325C159.521 77.5769 159.966 77.4373 160.356 77.2138C160.755 76.9985 161.091 76.7191 161.364 76.3754C161.646 76.0308 161.848 75.638 161.969 75.1972C162.091 74.7564 162.124 74.2873 162.07 73.79C162.016 73.2926 161.883 72.8421 161.67 72.4383C161.458 72.044 161.177 71.7048 160.826 71.4207C160.486 71.145 160.098 70.9412 159.66 70.8092C159.233 70.6856 158.769 70.6516 158.268 70.7071C157.776 70.7617 157.33 70.8966 156.93 71.1118C156.532 71.3364 156.191 71.6211 155.909 71.9658C155.636 72.3094 155.439 72.7016 155.318 73.1424C155.197 73.5832 155.163 74.0523 155.217 74.5497Z" fill="white"/>
<path d="M154.244 86.4984L164 87.525L163.582 91.5813C163.492 92.4545 163.276 93.1863 162.933 93.7767C162.59 94.3765 162.14 94.818 161.585 95.1013C161.03 95.3845 160.395 95.4885 159.679 95.4132C158.964 95.3379 158.363 95.1039 157.878 94.7111C157.401 94.3193 157.056 93.7942 156.842 93.1358C156.637 92.4877 156.579 91.7271 156.669 90.8539L156.982 87.8117L157.721 88.7151L154.055 88.3294L154.244 86.4984ZM153.579 92.949L157.376 90.8286L157.174 92.7863L153.376 94.9208L153.579 92.949ZM157.526 88.6945L158.474 87.9686L158.169 90.9263C158.086 91.7338 158.195 92.3575 158.497 92.7974C158.799 93.2467 159.256 93.5037 159.869 93.5682C160.492 93.6337 160.992 93.4775 161.369 93.0995C161.745 92.731 161.974 92.143 162.058 91.3355L162.362 88.3778L163.17 89.2885L157.526 88.6945Z" fill="white"/>
<path d="M153.792 103.279L155.88 103.839L159.429 110.416L158.815 112.388L155.767 106.891L155.014 105.582L153.792 103.279ZM152.075 101.01L161.431 103.986L160.884 105.742L151.528 102.766L152.075 101.01ZM150.022 107.602L155.413 105.338L156.321 106.904L149.382 109.655L150.022 107.602Z" fill="white"/>
<path d="M145.475 117.419C145.842 116.74 146.288 116.141 146.813 115.624C147.346 115.112 147.862 114.757 148.363 114.56L149.302 115.805C148.843 116.003 148.385 116.31 147.927 116.724C147.469 117.138 147.094 117.614 146.803 118.152C146.556 118.608 146.406 119.004 146.352 119.34C146.298 119.676 146.317 119.955 146.41 120.178C146.51 120.406 146.667 120.579 146.88 120.696C147.142 120.841 147.403 120.861 147.662 120.757C147.929 120.657 148.19 120.479 148.446 120.222C148.706 119.978 148.977 119.692 149.261 119.365C149.54 119.046 149.834 118.729 150.142 118.415C150.454 118.114 150.779 117.858 151.117 117.646C151.458 117.448 151.828 117.335 152.226 117.307C152.625 117.28 153.053 117.393 153.512 117.646C153.979 117.904 154.339 118.264 154.589 118.725C154.844 119.199 154.947 119.757 154.899 120.397C154.854 121.05 154.617 121.774 154.187 122.57C153.905 123.091 153.559 123.573 153.15 124.014C152.741 124.455 152.311 124.798 151.859 125.044L150.892 123.848C151.332 123.586 151.718 123.277 152.048 122.921C152.387 122.571 152.66 122.205 152.866 121.824C153.108 121.376 153.251 120.982 153.297 120.642C153.338 120.31 153.309 120.03 153.208 119.802C153.104 119.583 152.94 119.412 152.719 119.29C152.457 119.145 152.194 119.118 151.932 119.21C151.673 119.315 151.418 119.491 151.166 119.739C150.91 119.996 150.637 120.286 150.345 120.609C150.061 120.936 149.768 121.253 149.464 121.559C149.156 121.872 148.835 122.131 148.501 122.334C148.163 122.546 147.798 122.661 147.404 122.68C147.006 122.708 146.581 122.597 146.13 122.348C145.671 122.094 145.315 121.73 145.06 121.256C144.809 120.795 144.706 120.238 144.751 119.585C144.803 118.936 145.045 118.214 145.475 117.419Z" fill="white"/>
<path d="M139.977 126.596L147.508 132.948L144.922 136.079C144.366 136.753 143.782 137.238 143.172 137.535C142.556 137.839 141.939 137.952 141.322 137.875C140.705 137.797 140.12 137.525 139.568 137.059C139.016 136.594 138.646 136.061 138.46 135.461C138.274 134.861 138.274 134.228 138.46 133.561C138.64 132.901 139.008 132.234 139.565 131.56L141.504 129.212L141.64 130.396L138.81 128.01L139.977 126.596ZM141.489 130.269L142.688 130.21L140.802 132.493C140.287 133.116 140.03 133.693 140.031 134.222C140.033 134.765 140.271 135.236 140.744 135.635C141.225 136.04 141.726 136.192 142.247 136.091C142.763 135.997 143.278 135.639 143.793 135.015L145.678 132.732L145.846 133.944L141.489 130.269Z" fill="white"/>
<path d="M131.251 136.544L133.926 147.072L132.524 148.204L122.942 143.253L124.431 142.051L132.917 146.636L132.348 147.095L129.784 137.728L131.251 136.544ZM131.081 139.618L131.59 141.055L127.452 144.397L126.176 143.578L131.081 139.618Z" fill="white"/>
<path d="M114.31 148.006C114.975 147.662 115.65 147.451 116.334 147.372C117.015 147.307 117.669 147.366 118.297 147.55C118.922 147.747 119.491 148.063 120.005 148.497C120.518 148.931 120.941 149.476 121.273 150.132C121.605 150.787 121.795 151.452 121.843 152.127C121.891 152.802 121.805 153.451 121.585 154.074C121.369 154.705 121.034 155.276 120.579 155.787C120.129 156.306 119.567 156.74 118.893 157.089C118.178 157.458 117.461 157.67 116.743 157.723C116.029 157.785 115.345 157.677 114.691 157.4L115.234 155.863C115.725 156.044 116.208 156.117 116.684 156.083C117.164 156.058 117.633 155.927 118.09 155.69C118.548 155.454 118.929 155.161 119.235 154.812C119.533 154.467 119.753 154.083 119.895 153.659C120.029 153.24 120.08 152.801 120.046 152.341C120.004 151.885 119.869 151.43 119.639 150.977C119.409 150.523 119.124 150.145 118.782 149.845C118.433 149.548 118.051 149.332 117.636 149.197C117.213 149.066 116.776 149.021 116.325 149.063C115.866 149.11 115.407 149.252 114.95 149.488C114.493 149.725 114.111 150.028 113.805 150.398C113.504 150.777 113.284 151.224 113.147 151.741L111.588 151.274C111.753 150.584 112.067 149.961 112.53 149.403C112.993 148.846 113.586 148.38 114.31 148.006Z" fill="white"/>
<path d="M105.132 158.135L100.443 159.486L100.032 158.029L104.721 156.678L105.132 158.135ZM103.845 154.089L98.5223 155.622L98.1036 154.138L105.178 152.1L107.867 161.632L100.981 163.616L100.562 162.131L105.697 160.652L103.845 154.089Z" fill="white"/>
</svg>
